<svg version="1.1" viewBox="0.0 0.0 878.0314960629921 348.750656167979" fill="none" stroke="none" stroke-linecap="square" stroke-miterlimit="10" xmlns:xlink="http://www.w3.org/1999/xlink" xmlns="http://www.w3.org/2000/svg"><clipPath id="p.0"><path d="m0 0l878.0315 0l0 348.75067l-878.0315 0l0 -348.75067z" clip-rule="nonzero"/></clipPath><g clip-path="url(#p.0)"><path fill="#000000" fill-opacity="0.0" d="m0 0l878.0315 0l0 348.75067l-878.0315 0z" fill-rule="evenodd"/><path fill="#000000" fill-opacity="0.0" d="m25.393702 142.35432l133.92125 0" fill-rule="evenodd"/><path stroke="#000000" stroke-width="3.0" stroke-linejoin="round" stroke-linecap="butt" d="m25.393702 142.35432l123.64001 0" fill-rule="evenodd"/><path fill="#000000" stroke="#000000" stroke-width="3.0" stroke-linecap="butt" d="m149.0337 142.35432l-3.373764 3.373764l9.269318 -3.373764l-9.269318 -3.3737488z" fill-rule="evenodd"/><path fill="#fcc28b" d="m159.31496 142.35432l0 0c0 -26.909744 21.814667 -48.724403 48.72441 -48.724403l0 0c12.922516 0 25.315765 5.1334534 34.45337 14.2710495c9.1375885 9.137596 14.271057 21.530838 14.271057 34.453354l0 0c0 26.90976 -21.814682 48.72441 -48.724426 48.72441l0 0c-26.909744 0 -48.72441 -21.814651 -48.72441 -48.72441z" fill-rule="evenodd"/><path fill="#000000" d="m224.03937 119.48183l0 5.40625l-24.59375 0l15.625 16.625l-15.625 18.375l25.875 0l0 5.40625l-32.4375 0l0 -6.3125l14.96875 -17.46875l-14.96875 -15.9375l0 -6.09375l31.15625 0z" fill-rule="nonzero"/><path fill="#000000" fill-opacity="0.0" d="m51.779526 106.543304l55.685043 0l0 35.81102l-55.685043 0z" fill-rule="evenodd"/><path fill="#000000" d="m76.89939 116.738815l0.125 5.296875l-0.484375 0q-0.34375 -2.0 -1.671875 -3.203125q-1.328125 -1.21875 -2.875 -1.21875q-1.1875 0 -1.890625 0.640625q-0.703125 0.640625 -0.703125 1.46875q0 0.53125 0.25 0.9375q0.34375 0.546875 1.09375 1.09375q0.546875 0.375 2.546875 1.359375q2.78125 1.375 3.75 2.59375q0.96875 1.21875 0.96875 2.796875q0 1.984375 -1.5625 3.421875q-1.546875 1.4375 -3.9375 1.4375q-0.75 0 -1.421875 -0.15625q-0.65625 -0.140625 -1.671875 -0.578125q-0.5625 -0.234375 -0.921875 -0.234375q-0.3125 0 -0.65625 0.234375q-0.328125 0.234375 -0.546875 0.71875l-0.421875 0l0 -6.0l0.421875 0q0.515625 2.53125 1.984375 3.859375q1.484375 1.328125 3.171875 1.328125q1.3125 0 2.09375 -0.703125q0.78125 -0.71875 0.78125 -1.671875q0 -0.5625 -0.296875 -1.078125q-0.296875 -0.53125 -0.90625 -1.0q-0.609375 -0.484375 -2.15625 -1.25q-2.171875 -1.0625 -3.125 -1.8125q-0.9375 -0.75 -1.453125 -1.671875q-0.515625 -0.9375 -0.515625 -2.046875q0 -1.890625 1.390625 -3.21875q1.40625 -1.34375 3.53125 -1.34375q0.765625 0 1.5 0.1875q0.546875 0.140625 1.328125 0.515625q0.796875 0.375 1.109375 0.375q0.3125 0 0.484375 -0.1875q0.171875 -0.1875 0.328125 -0.890625l0.359375 0zm8.550781 9.046875l0 4.40625q0 1.296875 0.15625 1.640625q0.15625 0.328125 0.5625 0.53125q0.40625 0.1875 1.484375 0.1875l0 0.4375l-8.078125 0l0 -0.4375q1.109375 0 1.5 -0.203125q0.390625 -0.203125 0.546875 -0.53125q0.15625 -0.328125 0.15625 -1.625l0 -10.3125q0 -1.28125 -0.15625 -1.609375q-0.15625 -0.34375 -0.5625 -0.53125q-0.390625 -0.203125 -1.484375 -0.203125l0 -0.4375l6.921875 0q3.421875 0 4.90625 1.21875q1.5 1.21875 1.5 3.046875q0 1.546875 -0.96875 2.65625q-0.953125 1.09375 -2.640625 1.484375q-1.140625 0.28125 -3.84375 0.28125zm0 -7.78125l0 6.875q0.390625 0.015625 0.578125 0.015625q1.4375 0 2.203125 -0.84375q0.78125 -0.84375 0.78125 -2.625q0 -1.78125 -0.78125 -2.59375q-0.765625 -0.828125 -2.296875 -0.828125l-0.484375 0z" fill-rule="nonzero"/><path fill="#000000" fill-opacity="0.0" d="m256.7638 142.35432l86.86612 0" fill-rule="evenodd"/><path stroke="#000000" stroke-width="3.0" stroke-linejoin="round" stroke-linecap="butt" d="m256.7638 142.35432l76.58487 0" fill-rule="evenodd"/><path fill="#000000" stroke="#000000" stroke-width="3.0" stroke-linecap="butt" d="m333.34866 142.35432l-3.3737488 3.373764l9.269287 -3.373764l-9.269287 -3.3737488z" fill-rule="evenodd"/><path fill="#fcc28b" d="m343.6299 142.35432l0 0c0 -26.909744 21.814667 -48.724403 48.724426 -48.724403l0 0c12.922516 0 25.315765 5.1334534 34.45334 14.2710495c9.137604 9.137596 14.271057 21.530838 14.271057 34.453354l0 0c0 26.90976 -21.814667 48.72441 -48.724396 48.72441l0 0c-26.90976 0 -48.724426 -21.814651 -48.724426 -48.72441z" fill-rule="evenodd"/><path fill="#000000" fill-opacity="0.0" d="m343.6299 93.62992l97.44882 0l0 48.724403l-97.44882 0z" fill-rule="evenodd"/><path fill="#000000" d="m391.36606 131.75963l0 -11.6875l-11.671875 0l0 -1.921875l11.671875 0l0 -11.65625l1.875 0l0 11.65625l11.71875 0l0 1.921875l-11.71875 0l0 11.6875l-1.875 0z" fill-rule="nonzero"/><path fill="#000000" fill-opacity="0.0" d="m343.6299 142.35432l97.44882 0l0 48.72441l-97.44882 0z" fill-rule="evenodd"/><path fill="#000000" d="m404.7606 173.17154l-24.828125 0l0 -1.703125l24.828125 0l0 1.703125z" fill-rule="nonzero"/><path fill="#000000" fill-opacity="0.0" d="m441.07874 142.35432l-97.44882 0" fill-rule="evenodd"/><path stroke="#000000" stroke-width="2.0" stroke-linejoin="round" stroke-linecap="butt" d="m441.07874 142.35432l-97.44882 0" fill-rule="evenodd"/><path fill="#000000" fill-opacity="0.0" d="m256.7638 106.543304l71.27557 0l0 35.81102l-71.27557 0z" fill-rule="evenodd"/><path fill="#000000" d="m285.18088 127.113815l-6.015625 0q0.109375 2.1875 1.15625 3.453125q0.8125 0.96875 1.953125 0.96875q0.703125 0 1.265625 -0.390625q0.578125 -0.390625 1.234375 -1.421875l0.40625 0.265625q-0.890625 1.8125 -1.96875 2.578125q-1.078125 0.75 -2.5 0.75q-2.4375 0 -3.6875 -1.875q-1.015625 -1.515625 -1.015625 -3.75q0 -2.75 1.484375 -4.359375q1.484375 -1.625 3.484375 -1.625q1.65625 0 2.875 1.359375q1.234375 1.359375 1.328125 4.046875zm-2.890625 -0.78125q0 -1.890625 -0.203125 -2.59375q-0.203125 -0.703125 -0.640625 -1.0625q-0.234375 -0.21875 -0.65625 -0.21875q-0.609375 0 -0.984375 0.609375q-0.703125 1.03125 -0.703125 2.859375l0 0.40625l3.1875 0zm11.167969 -9.59375l0 0.53125q-1.21875 0.796875 -1.796875 1.5625q-0.796875 1.046875 -1.25 2.703125q-0.5625 2.046875 -0.5625 5.734375q0 3.46875 0.515625 5.390625q0.515625 1.921875 1.390625 3.109375q0.609375 0.8125 1.703125 1.4375l0 0.59375q-2.828125 -0.953125 -4.796875 -3.890625q-1.953125 -2.921875 -1.953125 -6.71875q0 -3.75 1.953125 -6.625q1.953125 -2.890625 4.796875 -3.828125zm5.4296875 1.28125l0 4.015625l2.609375 0l0 1.15625l-2.609375 0l0 6.765625q0 0.9375 0.078125 1.21875q0.09375 0.28125 0.3125 0.453125q0.234375 0.15625 0.421875 0.15625q0.765625 0 1.4375 -1.15625l0.359375 0.265625q-0.953125 2.25 -3.09375 2.25q-1.03125 0 -1.765625 -0.578125q-0.71875 -0.59375 -0.90625 -1.296875q-0.125 -0.40625 -0.125 -2.15625l0 -5.921875l-1.421875 0l0 -0.40625q1.46875 -1.046875 2.5 -2.1875q1.046875 -1.15625 1.8125 -2.578125l0.390625 0zm3.1328125 19.78125l0 -0.546875q1.21875 -0.8125 1.796875 -1.5625q0.78125 -1.0625 1.234375 -2.703125q0.5625 -2.0625 0.5625 -5.75q0 -3.46875 -0.515625 -5.375q-0.5 -1.921875 -1.375 -3.109375q-0.609375 -0.8125 -1.703125 -1.4375l0 -0.578125q2.828125 0.9375 4.78125 3.875q1.96875 2.921875 1.96875 6.71875q0 3.734375 -1.96875 6.625q-1.953125 2.890625 -4.78125 3.84375z" fill-rule="nonzero"/><path fill="#000000" fill-opacity="0.0" d="m392.35434 93.62992l0 -38.80315" fill-rule="evenodd"/><path stroke="#000000" stroke-width="3.0" stroke-linejoin="round" stroke-linecap="butt" d="m392.35434 93.62992l0 -38.80315" fill-rule="evenodd"/><path fill="#000000" fill-opacity="0.0" d="m391.02835 56.255608l98.456696 0" fill-rule="evenodd"/><path stroke="#000000" stroke-width="3.0" stroke-linejoin="round" stroke-linecap="butt" d="m391.02838 56.255608l88.175446 0" fill-rule="evenodd"/><path fill="#000000" stroke="#000000" stroke-width="3.0" stroke-linecap="butt" d="m479.20383 56.255608l-3.3737793 3.3737526l9.269318 -3.3737526l-9.269318 -3.3737488z" fill-rule="evenodd"/><path fill="#000000" fill-opacity="0.0" d="m392.35587 191.07863l0 43.779526" fill-rule="evenodd"/><path stroke="#000000" stroke-width="3.0" stroke-linejoin="round" stroke-linecap="butt" d="m392.35587 191.07863l0 43.779526" fill-rule="evenodd"/><path fill="#000000" fill-opacity="0.0" d="m391.02988 233.23685l98.456696 0" fill-rule="evenodd"/><path stroke="#000000" stroke-width="3.0" stroke-linejoin="round" stroke-linecap="butt" d="m391.0299 233.23686l88.175446 0" fill-rule="evenodd"/><path fill="#000000" stroke="#000000" stroke-width="3.0" stroke-linecap="butt" d="m479.20532 233.23686l-3.3737488 3.3737488l9.269318 -3.3737488l-9.269318 -3.373764z" fill-rule="evenodd"/><path fill="#fcc28b" d="m489.48557 24.60105l107.40158 0l0 63.307083l-107.40158 0z" fill-rule="evenodd"/><path fill="#000000" d="m529.0203 67.904594l0 -9.75l-9.734375 0l0 -1.609375l9.734375 0l0 -9.703125l1.5625 0l0 9.703125l9.765625 0l0 1.609375l-9.765625 0l0 9.75l-1.5625 0zm36.183594 -24.34375l0.609375 9.0l-0.609375 0q-1.203125 -4.03125 -3.453125 -5.8125q-2.25 -1.78125 -5.390625 -1.78125q-2.640625 0 -4.765625 1.34375q-2.125 1.328125 -3.34375 4.265625q-1.21875 2.921875 -1.21875 7.28125q0 3.59375 1.140625 6.234375q1.15625 2.640625 3.46875 4.046875q2.3125 1.40625 5.28125 1.40625q2.578125 0 4.546875 -1.109375q1.984375 -1.109375 4.34375 -4.390625l0.609375 0.390625q-2.0 3.546875 -4.65625 5.1875q-2.65625 1.640625 -6.296875 1.640625q-6.59375 0 -10.203125 -4.890625q-2.6875 -3.625 -2.6875 -8.546875q0 -3.96875 1.765625 -7.28125q1.78125 -3.328125 4.890625 -5.15625q3.125 -1.828125 6.8125 -1.828125q2.875 0 5.671875 1.40625q0.8125 0.4375 1.171875 0.4375q0.515625 0 0.90625 -0.375q0.515625 -0.53125 0.734375 -1.46875l0.671875 0z" fill-rule="nonzero"/><path fill="#fcc28b" d="m489.48557 201.58267l107.40158 0l0 63.3071l-107.40158 0z" fill-rule="evenodd"/><path fill="#000000" d="m524.81134 237.18309l10.09375 0l0 2.953125l-10.09375 0l0 -2.953125zm35.773438 -16.640625l0.609375 9.0l-0.609375 0q-1.203125 -4.03125 -3.453125 -5.8125q-2.25 -1.78125 -5.390625 -1.78125q-2.640625 0 -4.765625 1.34375q-2.125 1.328125 -3.34375 4.265625q-1.21875 2.921875 -1.21875 7.28125q0 3.59375 1.140625 6.234375q1.15625 2.640625 3.46875 4.046875q2.3125 1.40625 5.28125 1.40625q2.578125 0 4.546875 -1.109375q1.984375 -1.109375 4.34375 -4.390625l0.609375 0.390625q-2.0 3.546875 -4.65625 5.1875q-2.65625 1.640625 -6.296875 1.640625q-6.59375 0 -10.203125 -4.890625q-2.6875 -3.625 -2.6875 -8.546875q0 -3.96875 1.765625 -7.28125q1.78125 -3.328125 4.890625 -5.15625q3.125 -1.828125 6.8125 -1.828125q2.875 0 5.671875 1.40625q0.8125 0.4375 1.171875 0.4375q0.515625 0 0.90625 -0.375q0.515625 -0.53125 0.734375 -1.46875l0.671875 0z" fill-rule="nonzero"/><path fill="#000000" fill-opacity="0.0" d="m695.34326 191.07349l0 43.779526" fill-rule="evenodd"/><path stroke="#000000" stroke-width="3.0" stroke-linejoin="round" stroke-linecap="butt" d="m695.34326 201.35474l0 33.498276" fill-rule="evenodd"/><path fill="#000000" stroke="#000000" stroke-width="3.0" stroke-linecap="butt" d="m695.34326 201.35475l3.3737183 3.3737488l-3.3737183 -9.269302l-3.3737793 9.269302z" fill-rule="evenodd"/><path fill="#000000" fill-opacity="0.0" d="m695.34375 233.23697l-98.456665 0" fill-rule="evenodd"/><path stroke="#000000" stroke-width="3.0" stroke-linejoin="round" stroke-linecap="butt" d="m695.34375 233.23697l-98.456665 0" fill-rule="evenodd"/><path fill="#000000" fill-opacity="0.0" d="m695.34326 100.03412l0 -43.779526" fill-rule="evenodd"/><path stroke="#000000" stroke-width="3.0" stroke-linejoin="round" stroke-linecap="butt" d="m695.34326 89.75286l0 -33.49827" fill-rule="evenodd"/><path fill="#000000" stroke="#000000" stroke-width="3.0" stroke-linecap="butt" d="m695.34326 89.75286l-3.3737793 -3.3737488l3.3737793 9.269302l3.3737183 -9.269302z" fill-rule="evenodd"/><path fill="#000000" fill-opacity="0.0" d="m695.34375 57.870647l-98.456665 0" fill-rule="evenodd"/><path stroke="#000000" stroke-width="3.0" stroke-linejoin="round" stroke-linecap="butt" d="m695.34375 57.870647l-98.456665 0" fill-rule="evenodd"/><path fill="#fcc28b" d="m647.40155 100.03412l155.74805 0l0 91.055115l-155.74805 0z" fill-rule="evenodd"/><path fill="#000000" d="m698.94745 147.3598l0 6.171875q0 2.0 0.4375 2.484375q0.59375 0.6875 1.796875 0.6875l0.8125 0l0 0.578125l-9.078125 0l0 -0.578125l0.796875 0q1.34375 0 1.921875 -0.875q0.3125 -0.484375 0.3125 -2.296875l0 -13.6875q0 -2.0 -0.421875 -2.484375q-0.609375 -0.6875 -1.8125 -0.6875l-0.796875 0l0 -0.578125l7.765625 0q2.84375 0 4.484375 0.59375q1.640625 0.578125 2.765625 1.96875q1.125 1.390625 1.125 3.296875q0 2.59375 -1.71875 4.21875q-1.703125 1.625 -4.828125 1.625q-0.765625 0 -1.65625 -0.109375q-0.890625 -0.109375 -1.90625 -0.328125zm0 -0.890625q0.828125 0.15625 1.46875 0.234375q0.640625 0.078125 1.09375 0.078125q1.625 0 2.796875 -1.25q1.1875 -1.265625 1.1875 -3.265625q0 -1.375 -0.5625 -2.546875q-0.5625 -1.1875 -1.59375 -1.765625q-1.03125 -0.59375 -2.34375 -0.59375q-0.796875 0 -2.046875 0.296875l0 8.8125zm17.15625 -11.40625l0 18.984375q0 1.34375 0.1875 1.78125q0.203125 0.4375 0.609375 0.671875q0.40625 0.21875 1.515625 0.21875l0 0.5625l-7.015625 0l0 -0.5625q0.984375 0 1.34375 -0.203125q0.359375 -0.203125 0.5625 -0.671875q0.203125 -0.46875 0.203125 -1.796875l0 -13.0q0 -2.421875 -0.109375 -2.96875q-0.109375 -0.5625 -0.359375 -0.765625q-0.234375 -0.203125 -0.609375 -0.203125q-0.40625 0 -1.03125 0.25l-0.265625 -0.546875l4.265625 -1.75l0.703125 0zm12.078125 20.15625q-2.203125 1.703125 -2.765625 1.96875q-0.84375 0.390625 -1.796875 0.390625q-1.484375 0 -2.453125 -1.015625q-0.953125 -1.015625 -0.953125 -2.671875q0 -1.046875 0.46875 -1.8125q0.640625 -1.0625 2.21875 -2.0q1.59375 -0.9375 5.28125 -2.28125l0 -0.5625q0 -2.140625 -0.6875 -2.9375q-0.671875 -0.796875 -1.96875 -0.796875q-0.984375 0 -1.5625 0.53125q-0.59375 0.53125 -0.59375 1.21875l0.03125 0.90625q0 0.71875 -0.375 1.109375q-0.359375 0.390625 -0.953125 0.390625q-0.578125 0 -0.953125 -0.40625q-0.359375 -0.40625 -0.359375 -1.109375q0 -1.34375 1.375 -2.46875q1.375 -1.125 3.859375 -1.125q1.90625 0 3.125 0.640625q0.921875 0.484375 1.359375 1.515625q0.28125 0.671875 0.28125 2.75l0 4.859375q0 2.046875 0.078125 2.515625q0.078125 0.453125 0.25 0.609375q0.1875 0.15625 0.421875 0.15625q0.25 0 0.4375 -0.109375q0.328125 -0.203125 1.265625 -1.140625l0 0.875q-1.75 2.34375 -3.34375 2.34375q-0.765625 0 -1.21875 -0.53125q-0.453125 -0.53125 -0.46875 -1.8125zm0 -1.015625l0 -5.453125q-2.359375 0.9375 -3.046875 1.328125q-1.234375 0.6875 -1.765625 1.4375q-0.53125 0.75 -0.53125 1.640625q0 1.125 0.671875 1.875q0.671875 0.734375 1.546875 0.734375q1.1875 0 3.125 -1.5625zm10.265625 -8.625q2.515625 -3.03125 4.796875 -3.03125q1.171875 0 2.015625 0.59375q0.84375 0.578125 1.34375 1.921875q0.34375 0.9375 0.34375 2.875l0 6.109375q0 1.359375 0.21875 1.84375q0.171875 0.390625 0.546875 0.609375q0.390625 0.21875 1.421875 0.21875l0 0.5625l-7.078125 0l0 -0.5625l0.296875 0q1.0 0 1.390625 -0.296875q0.40625 -0.3125 0.5625 -0.90625q0.0625 -0.234375 0.0625 -1.46875l0 -5.859375q0 -1.953125 -0.515625 -2.828125q-0.5 -0.890625 -1.703125 -0.890625q-1.859375 0 -3.703125 2.03125l0 7.546875q0 1.453125 0.171875 1.796875q0.21875 0.453125 0.59375 0.671875q0.390625 0.203125 1.5625 0.203125l0 0.5625l-7.078125 0l0 -0.5625l0.3125 0q1.09375 0 1.46875 -0.546875q0.390625 -0.5625 0.390625 -2.125l0 -5.3125q0 -2.578125 -0.125 -3.140625q-0.109375 -0.5625 -0.359375 -0.765625q-0.234375 -0.203125 -0.640625 -0.203125q-0.4375 0 -1.046875 0.234375l-0.234375 -0.5625l4.3125 -1.75l0.671875 0l0 3.03125zm15.984375 -7.3125l0 4.703125l3.34375 0l0 1.09375l-3.34375 0l0 9.28125q0 1.390625 0.390625 1.875q0.40625 0.484375 1.03125 0.484375q0.515625 0 1.0 -0.3125q0.484375 -0.328125 0.75 -0.953125l0.609375 0q-0.546875 1.53125 -1.546875 2.3125q-1.0 0.765625 -2.0625 0.765625q-0.71875 0 -1.40625 -0.390625q-0.6875 -0.40625 -1.015625 -1.140625q-0.328125 -0.75 -0.328125 -2.296875l0 -9.625l-2.265625 0l0 -0.515625q0.859375 -0.34375 1.75 -1.15625q0.90625 -0.828125 1.609375 -1.953125q0.359375 -0.59375 1.0 -2.171875l0.484375 0z" fill-rule="nonzero"/><path fill="#000000" fill-opacity="0.0" d="m803.1496 145.56168l48.31494 0" fill-rule="evenodd"/><path stroke="#000000" stroke-width="3.0" stroke-linejoin="round" stroke-linecap="butt" d="m803.1496 145.56168l48.31494 0" fill-rule="evenodd"/><path fill="#000000" fill-opacity="0.0" d="m851.46454 145.57217l0 178.77167" fill-rule="evenodd"/><path stroke="#000000" stroke-width="3.0" stroke-linejoin="round" stroke-linecap="butt" d="m851.46454 145.57217l0 178.77167" fill-rule="evenodd"/><path fill="#000000" fill-opacity="0.0" d="m208.0315 324.33072l643.43304 0" fill-rule="evenodd"/><path stroke="#000000" stroke-width="3.0" stroke-linejoin="round" stroke-linecap="butt" d="m208.0315 324.33072l643.43304 0" fill-rule="evenodd"/><path fill="#000000" fill-opacity="0.0" d="m208.03937 191.07874l0 134.48819" fill-rule="evenodd"/><path stroke="#000000" stroke-width="3.0" stroke-linejoin="round" stroke-linecap="butt" d="m208.03937 201.35999l0 124.20694" fill-rule="evenodd"/><path fill="#000000" stroke="#000000" stroke-width="3.0" stroke-linecap="butt" d="m208.03937 201.36l3.3737488 3.3737488l-3.3737488 -9.269302l-3.3737488 9.269302z" fill-rule="evenodd"/><path fill="#000000" fill-opacity="0.0" d="m208.03937 264.88977l55.685028 0l0 35.811005l-55.685028 0z" fill-rule="evenodd"/><path fill="#000000" d="m226.37018 284.13214l0 4.40625q0 1.296875 0.15625 1.640625q0.15625 0.328125 0.5625 0.53125q0.40625 0.1875 1.484375 0.1875l0 0.4375l-8.078125 0l0 -0.4375q1.109375 0 1.5 -0.203125q0.390625 -0.203125 0.546875 -0.53125q0.15625 -0.328125 0.15625 -1.625l0 -10.3125q0 -1.28125 -0.15625 -1.609375q-0.15625 -0.34375 -0.5625 -0.53125q-0.390625 -0.203125 -1.484375 -0.203125l0 -0.4375l6.921875 0q3.421875 0 4.90625 1.21875q1.5 1.21875 1.5 3.046875q0 1.546875 -0.96875 2.65625q-0.953125 1.09375 -2.640625 1.484375q-1.140625 0.28125 -3.84375 0.28125zm0 -7.78125l0 6.875q0.390625 0.015625 0.578125 0.015625q1.4375 0 2.203125 -0.84375q0.78125 -0.84375 0.78125 -2.625q0 -1.78125 -0.78125 -2.59375q-0.765625 -0.828125 -2.296875 -0.828125l-0.484375 0zm25.269531 -0.90625l0 0.4375q-0.875 0.140625 -1.546875 0.921875q-0.5 0.578125 -1.46875 2.75l-5.46875 12.140625l-0.390625 0l-5.453125 -12.625q-0.984375 -2.296875 -1.328125 -2.6875q-0.328125 -0.40625 -1.25 -0.5l0 -0.4375l7.625 0l0 0.4375l-0.265625 0q-1.03125 0 -1.40625 0.25q-0.265625 0.171875 -0.265625 0.515625q0 0.21875 0.09375 0.5q0.09375 0.28125 0.625 1.546875l3.390625 7.90625l3.140625 -7.046875q0.5625 -1.28125 0.6875 -1.703125q0.140625 -0.4375 0.140625 -0.75q0 -0.34375 -0.1875 -0.609375q-0.1875 -0.28125 -0.5625 -0.421875q-0.5 -0.1875 -1.328125 -0.1875l0 -0.4375l5.21875 0z" fill-rule="nonzero"/><path fill="#000000" fill-opacity="0.0" d="m111.0 106.543304l48.314957 0l0 35.81102l-48.314957 0z" fill-rule="evenodd"/><path fill="#000000" d="m145.59183 126.16944l-8.921875 0l0 8.734383l-3.03125 0l0 -8.734383l-8.921875 0l0 -2.828125l8.921875 0l0 -8.78125l3.03125 0l0 8.78125l8.921875 0l0 2.828125z" fill-rule="nonzero"/><path fill="#000000" fill-opacity="0.0" d="m159.31496 195.05774l48.314972 0l0 35.81102l-48.314972 0z" fill-rule="evenodd"/><path fill="#000000" d="m177.17941 215.54326l12.578125 0l0 2.984375l-12.578125 0l0 -2.984375z" fill-rule="nonzero"/><path fill="#000000" fill-opacity="0.0" d="m135.86613 40.92651l144.34645 0l0 48.724407l-144.34645 0z" fill-rule="evenodd"/><path fill="#000000" d="m165.38739 64.86496l0 0.328125q-1.375 -0.6875 -2.296875 -1.6093712q-1.3125 -1.328125 -2.03125 -3.125q-0.703125 -1.796875 -0.703125 -3.71875q0 -2.828125 1.390625 -5.15625q1.390625 -2.328125 3.640625 -3.328125l0 0.375q-1.125 0.625 -1.84375 1.703125q-0.71875 1.078125 -1.078125 2.734375q-0.359375 1.640625 -0.359375 3.4375q0 1.9375 0.3125 3.53125q0.234375 1.265625 0.5625 2.015625q0.34375 0.765625 0.90625 1.46875q0.578125 0.7031212 1.5 1.3437462zm8.962677 -16.296871l0 4.28125l-0.328125 0q-0.171875 -1.234375 -0.59375 -1.953125q-0.421875 -0.734375 -1.203125 -1.15625q-0.78125 -0.4375 -1.625 -0.4375q-0.9375 0 -1.5625 0.578125q-0.625 0.578125 -0.625 1.3125q0 0.5625 0.390625 1.03125q0.578125 0.6875 2.6875 1.828125q1.734375 0.921875 2.359375 1.421875q0.640625 0.5 0.984375 1.171875q0.34375 0.671875 0.34375 1.40625q0 1.40625 -1.09375 2.421875q-1.078125 1.015625 -2.796875 1.015625q-0.53125 0 -1.015625 -0.078125q-0.28125 -0.046875 -1.171875 -0.328125q-0.890625 -0.296875 -1.125 -0.296875q-0.21875 0 -0.359375 0.140625q-0.125 0.140625 -0.1875 0.5625l-0.34375 0l0 -4.234375l0.34375 0q0.234375 1.328125 0.625 2.0q0.40625 0.65625 1.234375 1.09375q0.828125 0.4375 1.8125 0.4375q1.140625 0 1.796875 -0.59375q0.65625 -0.609375 0.65625 -1.4375q0 -0.453125 -0.25 -0.90625q-0.25 -0.46875 -0.78125 -0.875q-0.34375 -0.28125 -1.9375 -1.15625q-1.578125 -0.890625 -2.25 -1.421875q-0.671875 -0.53125 -1.015625 -1.171875q-0.34375 -0.640625 -0.34375 -1.390625q0 -1.34375 1.015625 -2.296875q1.015625 -0.96875 2.59375 -0.96875q0.984375 0 2.09375 0.484375q0.5 0.234375 0.71875 0.234375q0.234375 0 0.375 -0.140625q0.15625 -0.140625 0.25 -0.578125l0.328125 0zm9.719467 4.296875l0 5.0625q0 1.4375 0.0625 1.765625q0.078125 0.328125 0.21875 0.453125q0.15625 0.125 0.359375 0.125q0.28125 0 0.640625 -0.15625l0.125 0.3125l-2.484375 1.03125l-0.421875 0l0 -1.765625q-1.078125 1.171875 -1.640625 1.46875q-0.5625 0.296875 -1.1875 0.296875q-0.703125 0 -1.21875 -0.40625q-0.515625 -0.40625 -0.71875 -1.03125q-0.1875 -0.640625 -0.1875 -1.8125l0 -3.71875q0 -0.59375 -0.140625 -0.8125q-0.125 -0.234375 -0.375 -0.359375q-0.25 -0.125 -0.90625 -0.109375l0 -0.34375l2.921875 0l0 5.578125q0 1.171875 0.40625 1.546875q0.40625 0.359375 0.984375 0.359375q0.390625 0 0.890625 -0.25q0.5 -0.25 1.171875 -0.9375l0 -4.734375q0 -0.703125 -0.265625 -0.953125q-0.25 -0.25 -1.0625 -0.265625l0 -0.34375l2.828125 0zm4.3125 1.4375q1.203125 -1.6875 2.609375 -1.6875q1.28125 0 2.234375 1.109375q0.96875 1.09375 0.96875 3.0q0 2.21875 -1.484375 3.578125q-1.265625 1.15625 -2.828125 1.15625q-0.71875 0 -1.46875 -0.25q-0.75 -0.265625 -1.546875 -0.796875l0 -8.65625q0 -1.421875 -0.0625 -1.75q-0.0625 -0.328125 -0.21875 -0.4375q-0.140625 -0.125 -0.359375 -0.125q-0.25 0 -0.640625 0.15625l-0.125 -0.328125l2.5 -1.015625l0.421875 0l0 6.046875zm0 0.578125l0 5.0q0.453125 0.453125 0.953125 0.6875q0.5 0.234375 1.015625 0.234375q0.828125 0 1.546875 -0.90625q0.71875 -0.921875 0.71875 -2.65625q0 -1.609375 -0.71875 -2.46875q-0.71875 -0.859375 -1.625 -0.859375q-0.484375 0 -0.96875 0.25q-0.359375 0.171875 -0.921875 0.71875zm9.453125 -4.765625l0 2.75l1.953125 0l0 0.640625l-1.953125 0l0 5.40625q0 0.8125 0.234375 1.09375q0.234375 0.28125 0.59375 0.28125q0.3125 0 0.59375 -0.1875q0.28125 -0.1875 0.4375 -0.546875l0.34373474 0q-0.31248474 0.890625 -0.90623474 1.34375q-0.578125 0.453125 -1.1875 0.453125q-0.421875 0 -0.828125 -0.234375q-0.390625 -0.234375 -0.59375 -0.65625q-0.1875 -0.4375 -0.1875 -1.34375l0 -5.609375l-1.3125 0l0 -0.296875q0.5 -0.203125 1.015625 -0.6875q0.53125 -0.484375 0.9375 -1.125q0.203125 -0.359375 0.578125 -1.28125l0.28125 0zm5.2145386 2.5l0 1.875q1.046875 -1.875 2.140625 -1.875q0.5 0 0.828125 0.3125q0.328125 0.296875 0.328125 0.703125q0 0.359375 -0.234375 0.609375q-0.234375 0.234375 -0.5625 0.234375q-0.328125 0 -0.71875 -0.3125q-0.390625 -0.3125 -0.578125 -0.3125q-0.171875 0 -0.359375 0.1875q-0.40625 0.359375 -0.84375 1.21875l0 4.0q0 0.703125 0.171875 1.046875q0.109375 0.25 0.40625 0.421875q0.3125 0.15625 0.875 0.15625l0 0.328125l-4.28125 0l0 -0.328125q0.640625 0 0.953125 -0.203125q0.234375 -0.140625 0.3125 -0.46875q0.046875 -0.140625 0.046875 -0.875l0 -3.234375q0 -1.453125 -0.0625 -1.734375q-0.046875 -0.28125 -0.21875 -0.40625q-0.15625 -0.125 -0.390625 -0.125q-0.28125 0 -0.640625 0.140625l-0.078125 -0.328125l2.515625 -1.03125l0.390625 0zm8.493927 7.390625q-1.28125 1.0 -1.609375 1.15625q-0.5 0.21875 -1.046875 0.21875q-0.875 0 -1.4375 -0.59375q-0.546875 -0.59375 -0.546875 -1.5625q0 -0.609375 0.265625 -1.046875q0.375 -0.625 1.296875 -1.171875q0.921875 -0.546875 3.078125 -1.328125l0 -0.328125q0 -1.25 -0.40625 -1.703125q-0.390625 -0.46875 -1.140625 -0.46875q-0.578125 0 -0.921875 0.3125q-0.34375 0.296875 -0.34375 0.703125l0.015625 0.53125q0 0.421875 -0.21875 0.65625q-0.203125 0.21875 -0.546875 0.21875q-0.34375 0 -0.5625 -0.234375q-0.203125 -0.234375 -0.203125 -0.65625q0 -0.78125 0.796875 -1.4375q0.8125 -0.65625 2.25 -0.65625q1.109375 0 1.828125 0.375q0.53125 0.28125 0.796875 0.890625q0.15625 0.390625 0.15625 1.59375l0 2.84375q0 1.1875 0.046875 1.453125q0.046875 0.265625 0.140625 0.359375q0.109375 0.09375 0.25 0.09375q0.140625 0 0.25 -0.0625q0.203125 -0.125 0.75 -0.671875l0 0.515625q-1.03125 1.359375 -1.953125 1.359375q-0.453125 0 -0.71875 -0.296875q-0.265625 -0.3125 -0.265625 -1.0625zm0 -0.59375l0 -3.171875q-1.375 0.546875 -1.78125 0.765625q-0.71875 0.40625 -1.03125 0.84375q-0.296875 0.4375 -0.296875 0.953125q0 0.65625 0.390625 1.09375q0.390625 0.421875 0.890625 0.421875q0.703125 0 1.828125 -0.90625zm10.639908 -1.375q-0.34375 1.65625 -1.328125 2.546875q-0.984375 0.875 -2.171875 0.875q-1.421875 0 -2.484375 -1.1875q-1.046875 -1.1875 -1.046875 -3.21875q0 -1.96875 1.171875 -3.203125q1.171875 -1.234375 2.8125 -1.234375q1.21875 0 2.015625 0.65625q0.796875 0.65625 0.796875 1.34375q0 0.359375 -0.234375 0.578125q-0.21875 0.203125 -0.609375 0.203125q-0.546875 0 -0.8125 -0.34375q-0.15625 -0.1875 -0.21875 -0.71875q-0.046875 -0.546875 -0.359375 -0.828125q-0.328125 -0.28125 -0.890625 -0.28125q-0.90625 0 -1.46875 0.671875q-0.734375 0.90625 -0.734375 2.359375q0 1.5 0.734375 2.640625q0.734375 1.140625 1.984375 1.140625q0.890625 0 1.609375 -0.609375q0.5 -0.421875 0.96875 -1.515625l0.265625 0.125zm3.6086578 -7.921875l0 2.75l1.953125 0l0 0.640625l-1.953125 0l0 5.40625q0 0.8125 0.234375 1.09375q0.234375 0.28125 0.59375 0.28125q0.3125 0 0.59375 -0.1875q0.28125 -0.1875 0.4375 -0.546875l0.34375 0q-0.3125 0.890625 -0.90625 1.34375q-0.578125 0.453125 -1.1875 0.453125q-0.421875 0 -0.828125 -0.234375q-0.390625 -0.234375 -0.59375 -0.65625q-0.1875 -0.4375 -0.1875 -1.34375l0 -5.609375l-1.3125 0l0 -0.296875q0.5 -0.203125 1.015625 -0.6875q0.53125 -0.484375 0.9375 -1.125q0.203125 -0.359375 0.578125 -1.28125l0.28125 0zm10.675491 5.3125l0 3.59375q0 1.171875 0.25 1.453125q0.34375 0.390625 1.046875 0.390625l0.484375 0l0 0.34375l-5.296875 0l0 -0.34375l0.46875 0q0.78125 0 1.109375 -0.5q0.1875 -0.28125 0.1875 -1.34375l0 -7.984375q0 -1.15625 -0.25 -1.4375q-0.359375 -0.40625 -1.046875 -0.40625l-0.46875 0l0 -0.34375l4.53125 0q1.65625 0 2.609375 0.34375q0.953125 0.34375 1.609375 1.15625q0.65625 0.8125 0.65625 1.921875q0 1.515625 -1.0 2.46875q-1.0 0.9375 -2.8125 0.9375q-0.453125 0 -0.96875 -0.0625q-0.515625 -0.0625 -1.109375 -0.1875zm0 -0.515625q0.484375 0.078125 0.859375 0.125q0.375 0.046875 0.625 0.046875q0.953125 0 1.640625 -0.734375q0.6875 -0.734375 0.6875 -1.890625q0 -0.8125 -0.328125 -1.5q-0.328125 -0.6875 -0.9375 -1.015625q-0.59375 -0.34375 -1.359375 -0.34375q-0.453125 0 -1.1875 0.171875l0 5.140625zm19.797607 -6.0625l0 0.34375q-0.65626526 0.125 -1.0000153 0.421875q-0.484375 0.4375 -0.859375 1.359375l-4.296875 10.515625l-0.34375 0l-4.625 -10.640625q-0.359375 -0.828125 -0.5 -1.015625q-0.234375 -0.28125 -0.5625 -0.4375q-0.328125 -0.15625 -0.90625 -0.203125l0 -0.34375l5.046875 0l0 0.34375q-0.84375 0.078125 -1.109375 0.296875q-0.25 0.203125 -0.25 0.53125q0 0.453125 0.421875 1.421875l3.140625 7.25l2.921875 -7.15625q0.421875 -1.0625 0.421875 -1.46875q0 -0.265625 -0.265625 -0.5q-0.265625 -0.25 -0.890625 -0.34375q-0.046875 -0.015625 -0.15625 -0.03125l0 -0.34375l3.8125153 0z" fill-rule="nonzero"/><path fill="#000000" d="m177.93658 75.52121l0 5.484375q0 1.171875 0.25 1.46875q0.34375 0.40625 0.90625 0.40625l0.75 0l0 0.328125l-4.96875 0l0 -0.328125l0.359375 0q0.375 0 0.671875 -0.171875q0.296875 -0.1875 0.40625 -0.5q0.125 -0.3125 0.125 -1.203125l0 -5.484375l-1.625 0l0 -0.65625l1.625 0l0 -0.546875q0 -1.25 0.390625 -2.109375q0.40625 -0.875 1.234375 -1.40625q0.828125 -0.53125 1.859375 -0.53125q0.953125 0 1.75 0.625q0.53125 0.40625 0.53125 0.921875q0 0.265625 -0.234375 0.515625q-0.234375 0.234375 -0.515625 0.234375q-0.203125 0 -0.4375 -0.140625q-0.234375 -0.15625 -0.578125 -0.65625q-0.328125 -0.5 -0.609375 -0.671875q-0.28125 -0.171875 -0.640625 -0.171875q-0.40625 0 -0.703125 0.234375q-0.296875 0.21875 -0.421875 0.6875q-0.125 0.46875 -0.125 2.40625l0 0.609375l2.15625 0l0 0.65625l-2.15625 0zm5.400177 -0.90625l0 1.875q1.046875 -1.875 2.140625 -1.875q0.5 0 0.828125 0.3125q0.328125 0.296875 0.328125 0.703125q0 0.359375 -0.234375 0.609375q-0.234375 0.234375 -0.5625 0.234375q-0.328125 0 -0.71875 -0.3125q-0.390625 -0.3125 -0.578125 -0.3125q-0.171875 0 -0.359375 0.1875q-0.40625 0.359375 -0.84375 1.21875l0 4.0q0 0.703125 0.171875 1.046875q0.109375 0.25 0.40625 0.421875q0.3125 0.15625 0.875 0.15625l0 0.328125l-4.28125 0l0 -0.328125q0.640625 0 0.953125 -0.203125q0.234375 -0.140625 0.3125 -0.46875q0.046875 -0.140625 0.046875 -0.875l0 -3.234375q0 -1.453125 -0.0625 -1.734375q-0.046875 -0.28125 -0.21875 -0.40625q-0.15625 -0.125 -0.390625 -0.125q-0.28125 0 -0.640625 0.140625l-0.078125 -0.328125l2.515625 -1.03125l0.390625 0zm7.853302 0q1.890625 0 3.03125 1.4375q0.984375 1.234375 0.984375 2.828125q0 1.125 -0.546875 2.28125q-0.53125 1.140625 -1.484375 1.71875q-0.9375 0.578125 -2.09375 0.578125q-1.890625 0 -3.0 -1.5q-0.9375 -1.265625 -0.9375 -2.84375q0 -1.140625 0.5625 -2.265625q0.578125 -1.140625 1.5 -1.6875q0.9375 -0.546875 1.984375 -0.546875zm-0.296875 0.59375q-0.46875 0 -0.96875 0.296875q-0.484375 0.28125 -0.78125 1.0q-0.296875 0.71875 -0.296875 1.84375q0 1.828125 0.71875 3.15625q0.71875 1.3125 1.90625 1.3125q0.890625 0 1.453125 -0.71875q0.578125 -0.734375 0.578125 -2.515625q0 -2.21875 -0.953125 -3.5q-0.640625 -0.875 -1.65625 -0.875zm8.015625 1.1875q0.90625 -0.90625 1.0781097 -1.046875q0.40625 -0.34375 0.875 -0.53125q0.484375 -0.203125 0.9375 -0.203125q0.78125 0 1.34375 0.46875q0.578125 0.453125 0.765625 1.3125q0.9375 -1.09375 1.578125 -1.4375q0.65625 -0.34375 1.34375 -0.34375q0.65625 0 1.171875 0.34375q0.515625 0.34375 0.8125 1.125q0.203125 0.515625 0.203125 1.65625l0 3.578125q0 0.78125 0.125 1.078125q0.078125 0.203125 0.328125 0.34375q0.25 0.140625 0.796875 0.140625l0 0.328125l-4.109375 0l0 -0.328125l0.171875 0q0.53125 0 0.84375 -0.203125q0.203125 -0.15625 0.296875 -0.46875q0.03125 -0.15625 0.03125 -0.890625l0 -3.578125q0 -1.03125 -0.234375 -1.453125q-0.359375 -0.578125 -1.140625 -0.578125q-0.484375 0 -0.984375 0.25q-0.484375 0.234375 -1.171875 0.890625l-0.015625 0.09375l0.015625 0.40625l0 3.96875q0 0.859375 0.09375 1.078125q0.09375 0.203125 0.359375 0.34375q0.265625 0.140625 0.90625 0.140625l0 0.328125l-4.21875 0l0 -0.328125q0.6875 0 0.953125 -0.15625q0.265625 -0.171875 0.359375 -0.5q0.046875 -0.15625 0.046875 -0.90625l0 -3.578125q0 -1.03125 -0.296875 -1.46875q-0.40625 -0.59375 -1.125 -0.59375q-0.5 0 -0.96875 0.265625q-0.76560974 0.40625 -1.1718597 0.90625l0 4.46875q0 0.828125 0.109375 1.078125q0.109375 0.234375 0.328125 0.359375q0.234375 0.125 0.92185974 0.125l0 0.328125l-4.1249847 0l0 -0.328125q0.5625 0 0.796875 -0.125q0.234375 -0.125 0.34375 -0.390625q0.125 -0.265625 0.125 -1.046875l0 -3.1875q0 -1.375 -0.09375 -1.765625q-0.0625 -0.3125 -0.203125 -0.421875q-0.125 -0.109375 -0.359375 -0.109375q-0.265625 0 -0.609375 0.140625l-0.140625 -0.328125l2.515625 -1.03125l0.390625 0l0 1.78125zm24.659851 -5.828125l0 4.28125l-0.328125 0q-0.171875 -1.234375 -0.59375 -1.953125q-0.421875 -0.734375 -1.203125 -1.15625q-0.78125 -0.4375 -1.625 -0.4375q-0.9375 0 -1.5625 0.578125q-0.625 0.578125 -0.625 1.3125q0 0.5625 0.390625 1.03125q0.578125 0.6875 2.6875 1.828125q1.734375 0.921875 2.359375 1.421875q0.640625 0.5 0.984375 1.171875q0.34375 0.671875 0.34375 1.40625q0 1.40625 -1.09375 2.421875q-1.078125 1.015625 -2.796875 1.015625q-0.53125 0 -1.015625 -0.078125q-0.28125 -0.046875 -1.171875 -0.328125q-0.890625 -0.296875 -1.125 -0.296875q-0.21875 0 -0.359375 0.140625q-0.125 0.140625 -0.1875 0.5625l-0.34375 0l0 -4.234375l0.34375 0q0.234375 1.328125 0.625 2.0q0.40625 0.65625 1.234375 1.09375q0.828125 0.4375 1.8125 0.4375q1.140625 0 1.796875 -0.59375q0.65625 -0.609375 0.65625 -1.4375q0 -0.453125 -0.25 -0.90625q-0.25 -0.46875 -0.78125 -0.875q-0.34375 -0.28125 -1.9375 -1.15625q-1.578125 -0.890625 -2.25 -1.421875q-0.671875 -0.53125 -1.015625 -1.171875q-0.34375 -0.640625 -0.34375 -1.390625q0 -1.34375 1.015625 -2.296875q1.015625 -0.96875 2.59375 -0.96875q0.984375 0 2.09375 0.484375q0.5 0.234375 0.71875 0.234375q0.234375 0 0.375 -0.140625q0.15625 -0.140625 0.25 -0.578125l0.328125 0zm5.656967 6.859375l0 3.59375q0 1.171875 0.25 1.453125q0.34375 0.390625 1.046875 0.390625l0.484375 0l0 0.34375l-5.296875 0l0 -0.34375l0.46875 0q0.78125 0 1.109375 -0.5q0.1875 -0.28125 0.1875 -1.34375l0 -7.984375q0 -1.15625 -0.25 -1.4375q-0.359375 -0.40625 -1.046875 -0.40625l-0.46875 0l0 -0.34375l4.53125 0q1.65625 0 2.609375 0.34375q0.953125 0.34375 1.609375 1.15625q0.65625 0.8125 0.65625 1.921875q0 1.515625 -1.0 2.46875q-1.0 0.9375 -2.8125 0.9375q-0.453125 0 -0.96875 -0.0625q-0.515625 -0.0625 -1.109375 -0.1875zm0 -0.515625q0.484375 0.078125 0.859375 0.125q0.375 0.046875 0.625 0.046875q0.953125 0 1.640625 -0.734375q0.6875 -0.734375 0.6875 -1.890625q0 -0.8125 -0.328125 -1.5q-0.328125 -0.6875 -0.9375 -1.015625q-0.59375 -0.34375 -1.359375 -0.34375q-0.453125 0 -1.1875 0.171875l0 5.140625zm6.969467 -6.28125l0 -0.375q1.375 0.6875 2.296875 1.609375q1.3125 1.328125 2.015625 3.125q0.71875 1.78125 0.71875 3.734375q0 2.8125 -1.390625 5.140625q-1.390625 2.328125 -3.640625 3.328125l0 -0.328125q1.125 -0.625 1.84375 -1.703125q0.71875 -1.0625 1.0625 -2.71875q0.359375 -1.65625 0.359375 -3.453125q0 -1.9375 -0.296875 -3.546875q-0.234375 -1.25 -0.578125 -2.0q-0.328125 -0.765625 -0.90625 -1.46875q-0.5625 -0.703125 -1.484375 -1.34375z" fill-rule="nonzero"/></g></svg>