<svg version="1.1" viewBox="0.0 0.0 878.0314960629921 348.750656167979" fill="none" stroke="none" stroke-linecap="square" stroke-miterlimit="10" xmlns:xlink="http://www.w3.org/1999/xlink" xmlns="http://www.w3.org/2000/svg"><clipPath id="p.0"><path d="m0 0l878.0315 0l0 348.75067l-878.0315 0l0 -348.75067z" clip-rule="nonzero"/></clipPath><g clip-path="url(#p.0)"><path fill="#000000" fill-opacity="0.0" d="m0 0l878.0315 0l0 348.75067l-878.0315 0z" fill-rule="evenodd"/><path fill="#000000" fill-opacity="0.0" d="m25.393702 142.35432l133.92125 0" fill-rule="evenodd"/><path stroke="#000000" stroke-width="3.0" stroke-linejoin="round" stroke-linecap="butt" d="m25.393702 142.35432l123.64001 0" fill-rule="evenodd"/><path fill="#000000" stroke="#000000" stroke-width="3.0" stroke-linecap="butt" d="m149.0337 142.35432l-3.373764 3.373764l9.269318 -3.373764l-9.269318 -3.3737488z" fill-rule="evenodd"/><path fill="#fafc8b" d="m159.31496 142.35432l0 0c0 -26.909744 21.814667 -48.724403 48.72441 -48.724403l0 0c12.922516 0 25.315765 5.1334534 34.45337 14.2710495c9.1375885 9.137596 14.271057 21.530838 14.271057 34.453354l0 0c0 26.90976 -21.814682 48.72441 -48.724426 48.72441l0 0c-26.909744 0 -48.72441 -21.814651 -48.72441 -48.72441z" fill-rule="evenodd"/><path fill="#000000" d="m224.03937 119.48183l0 5.40625l-24.59375 0l15.625 16.625l-15.625 18.375l25.875 0l0 5.40625l-32.4375 0l0 -6.3125l14.96875 -17.46875l-14.96875 -15.9375l0 -6.09375l31.15625 0z" fill-rule="nonzero"/><path fill="#000000" fill-opacity="0.0" d="m51.779526 106.543304l55.685043 0l0 35.81102l-55.685043 0z" fill-rule="evenodd"/><path fill="#000000" d="m70.69772 133.27007q-2.0 0 -3.859375 -0.53125q-1.859375 -0.546875 -2.984375 -1.40625l1.3125 -2.921875q1.09375 0.78125 2.578125 1.265625q1.484375 0.484375 2.96875 0.484375q1.65625 0 2.453125 -0.484375q0.796875 -0.5 0.796875 -1.3125q0 -0.609375 -0.46875 -1.0q-0.46875 -0.40625 -1.203125 -0.640625q-0.734375 -0.234375 -1.984375 -0.53125q-1.921875 -0.453125 -3.140625 -0.90625q-1.21875 -0.453125 -2.09375 -1.453125q-0.875 -1.015625 -0.875 -2.703125q0 -1.453125 0.78125 -2.640625q0.796875 -1.203125 2.390625 -1.890625q1.59375 -0.703125 3.90625 -0.703125q1.609375 0 3.140625 0.390625q1.53125 0.390625 2.6875 1.109375l-1.203125 2.953125q-2.328125 -1.328125 -4.65625 -1.328125q-1.625 0 -2.40625 0.53125q-0.78125 0.53125 -0.78125 1.390625q0 0.859375 0.890625 1.28125q0.90625 0.421875 2.75 0.828125q1.921875 0.453125 3.140625 0.921875q1.234375 0.453125 2.109375 1.4375q0.875 0.984375 0.875 2.65625q0 1.4375 -0.8125 2.625q-0.796875 1.1875 -2.40625 1.890625q-1.609375 0.6875 -3.90625 0.6875zm17.06195 -17.078125q2.234375 0 3.875 0.75q1.640625 0.734375 2.53125 2.109375q0.890625 1.359375 0.890625 3.234375q0 1.84375 -0.890625 3.234375q-0.890625 1.375 -2.53125 2.109375q-1.640625 0.734375 -3.875 0.734375l-3.390625 0l0 4.625l-3.890625 0l0 -16.796875l7.28125 0zm-0.21875 9.0q1.75 0 2.65625 -0.75q0.921875 -0.765625 0.921875 -2.15625q0 -1.421875 -0.921875 -2.171875q-0.90625 -0.75 -2.65625 -0.75l-3.171875 0l0 5.828125l3.171875 0z" fill-rule="nonzero"/><path fill="#000000" fill-opacity="0.0" d="m256.7638 142.35432l86.86612 0" fill-rule="evenodd"/><path stroke="#000000" stroke-width="3.0" stroke-linejoin="round" stroke-linecap="butt" d="m256.7638 142.35432l76.58487 0" fill-rule="evenodd"/><path fill="#000000" stroke="#000000" stroke-width="3.0" stroke-linecap="butt" d="m333.34866 142.35432l-3.3737488 3.373764l9.269287 -3.373764l-9.269287 -3.3737488z" fill-rule="evenodd"/><path fill="#000000" fill-opacity="0.0" d="m256.7638 106.543304l71.27557 0l0 35.81102l-71.27557 0z" fill-rule="evenodd"/><path fill="#000000" d="m285.40463 126.582565q0 0.0625 -0.078125 1.0l-9.765625 0q0.265625 1.203125 1.25 1.90625q0.984375 0.6875 2.453125 0.6875q1.0 0 1.78125 -0.296875q0.78125 -0.296875 1.453125 -0.953125l2.0 2.171875q-1.828125 2.078125 -5.328125 2.078125q-2.1875 0 -3.875 -0.84375q-1.671875 -0.859375 -2.59375 -2.359375q-0.90625 -1.515625 -0.90625 -3.4375q0 -1.90625 0.890625 -3.421875q0.90625 -1.53125 2.484375 -2.375q1.578125 -0.859375 3.515625 -0.859375q1.890625 0 3.421875 0.828125q1.546875 0.8125 2.421875 2.34375q0.875 1.515625 0.875 3.53125zm-6.6875 -3.859375q-1.28125 0 -2.140625 0.71875q-0.859375 0.71875 -1.0625 1.96875l6.359375 0q-0.1875 -1.234375 -1.0625 -1.953125q-0.859375 -0.734375 -2.09375 -0.734375zm12.206451 14.921875q-1.4375 -2.1875 -2.21875 -5.0625q-0.78125 -2.875 -0.78125 -6.171875q0 -3.28125 0.78125 -6.171875q0.78125 -2.890625 2.21875 -5.0625l3.578125 0q-1.515625 2.671875 -2.21875 5.421875q-0.6875 2.75 -0.6875 5.8125q0 3.078125 0.6875 5.828125q0.703125 2.734375 2.21875 5.40625l-3.578125 0zm13.880493 -5.28125q-0.5625 0.40625 -1.375 0.609375q-0.796875 0.203125 -1.671875 0.203125q-2.3125 0 -3.578125 -1.171875q-1.25 -1.171875 -1.25 -3.453125l0 -5.3125l-2.0 0l0 -2.875l2.0 0l0 -3.140625l3.734375 0l0 3.140625l3.21875 0l0 2.875l-3.21875 0l0 5.265625q0 0.8125 0.421875 1.265625q0.421875 0.4375 1.1875 0.4375q0.890625 0 1.515625 -0.484375l1.015625 2.640625zm0.6118469 5.28125q1.515625 -2.671875 2.21875 -5.40625q0.71875 -2.75 0.71875 -5.828125q0 -3.0625 -0.71875 -5.8125q-0.703125 -2.75 -2.21875 -5.421875l3.578125 0q1.46875 2.140625 2.25 5.03125q0.78125 2.890625 0.78125 6.203125q0 3.3125 -0.78125 6.1875q-0.765625 2.859375 -2.25 5.046875l-3.578125 0z" fill-rule="nonzero"/><path fill="#fafc8b" d="m343.6286 110.70079l133.92126 0l0 63.307083l-133.92126 0z" fill-rule="evenodd"/><path fill="#000000" d="m375.88867 139.88954l-4.578125 4.640625l0 5.890625l-2.375 0l0 -22.40625l2.375 0l0 13.546875l13.15625 -13.546875l2.71875 0l-9.703125 10.15625l10.375 12.25l-2.8125 0l-9.15625 -10.53125z" fill-rule="nonzero"/><path fill="#000000" d="m395.9376 151.12392q1.578125 0 2.859375 0.71875q1.28125 0.703125 2.0 2.015625q0.734375 1.296875 0.734375 2.953125q0 1.6875 -0.734375 2.984375q-0.71875 1.296875 -2.0 2.015625q-1.265625 0.71875 -2.859375 0.71875q-1.359375 0 -2.46875 -0.5625q-1.09375 -0.578125 -1.796875 -1.65625l0 6.25l-1.515625 0l0 -15.359375l1.453125 0l0 2.21875q0.6875 -1.109375 1.796875 -1.703125q1.125 -0.59375 2.53125 -0.59375zm-0.109375 10.0625q1.171875 0 2.125 -0.546875q0.96875 -0.546875 1.515625 -1.546875q0.546875 -1.0 0.546875 -2.28125q0 -1.28125 -0.546875 -2.265625q-0.546875 -1.0 -1.515625 -1.546875q-0.953125 -0.5625 -2.125 -0.5625q-1.1875 0 -2.140625 0.5625q-0.953125 0.546875 -1.5 1.546875q-0.53125 0.984375 -0.53125 2.265625q0 1.28125 0.53125 2.28125q0.546875 1.0 1.5 1.546875q0.953125 0.546875 2.140625 0.546875z" fill-rule="nonzero"/><path fill="#000000" d="m420.3356 142.70204l-14.078125 0q0.1875 2.625 2.0 4.25q1.828125 1.609375 4.625 1.609375q1.5625 0 2.875 -0.546875q1.3125 -0.5625 2.265625 -1.65625l1.28125 1.46875q-1.109375 1.34375 -2.796875 2.046875q-1.6875 0.703125 -3.703125 0.703125q-2.578125 0 -4.578125 -1.09375q-2.0 -1.109375 -3.125 -3.0625q-1.125 -1.953125 -1.125 -4.421875q0 -2.453125 1.0625 -4.40625q1.078125 -1.953125 2.953125 -3.03125q1.875 -1.09375 4.21875 -1.09375q2.328125 0 4.1875 1.09375q1.859375 1.078125 2.90625 3.015625q1.0625 1.9375 1.0625 4.421875l-0.03125 0.703125zm-8.125 -7.296875q-2.4375 0 -4.09375 1.5625q-1.640625 1.546875 -1.859375 4.046875l11.9375 0q-0.234375 -2.5 -1.890625 -4.046875q-1.640625 -1.5625 -4.09375 -1.5625zm16.671783 21.21875q-1.796875 -2.9375 -2.765625 -6.765625q-0.953125 -3.828125 -0.953125 -8.203125q0 -4.390625 0.953125 -8.234375q0.96875 -3.859375 2.765625 -6.75l2.171875 0q-1.890625 3.234375 -2.78125 6.953125q-0.875 3.703125 -0.875 8.03125q0 4.3125 0.875 8.03125q0.890625 3.703125 2.78125 6.9375l-2.171875 0zm15.51239 -7.234375q-0.640625 0.578125 -1.59375 0.890625q-0.9375 0.296875 -1.953125 0.296875q-2.375 0 -3.65625 -1.28125q-1.28125 -1.28125 -1.28125 -3.609375l0 -10.171875l-3.0 0l0 -1.921875l3.0 0l0 -3.6875l2.28125 0l0 3.6875l5.109375 0l0 1.921875l-5.109375 0l0 10.046875q0 1.5 0.75 2.28125q0.75 0.78125 2.15625 0.78125q0.703125 0 1.359375 -0.21875q0.65625 -0.21875 1.140625 -0.640625l0.796875 1.625zm2.242035 7.234375q1.890625 -3.234375 2.78125 -6.921875q0.890625 -3.703125 0.890625 -8.046875q0 -4.359375 -0.890625 -8.046875q-0.890625 -3.703125 -2.78125 -6.9375l2.171875 0q1.796875 2.890625 2.765625 6.75q0.984375 3.84375 0.984375 8.234375q0 4.375 -0.96875 8.21875q-0.953125 3.84375 -2.78125 6.75l-2.171875 0z" fill-rule="nonzero"/><path fill="#fafc8b" d="m564.4173 96.826775l155.74805 0l0 91.05512l-155.74805 0z" fill-rule="evenodd"/><path fill="#000000" d="m611.7625 131.66808q4.28125 0 6.71875 2.0625q2.4375 2.046875 2.4375 5.625q0 3.578125 -2.4375 5.609375q-2.4375 2.03125 -6.71875 2.03125l-6.015625 0l0 7.078125l-2.375 0l0 -22.40625l8.390625 0zm-0.0625 13.25q3.328125 0 5.078125 -1.453125q1.765625 -1.453125 1.765625 -4.109375q0 -2.71875 -1.765625 -4.171875q-1.75 -1.46875 -5.078125 -1.46875l-5.953125 0l0 11.203125l5.953125 0zm14.179138 -14.59375l2.265625 0l0 23.75l-2.265625 0l0 -23.75zm14.498657 6.796875q3.296875 0 5.046875 1.65625q1.765625 1.640625 1.765625 4.859375l0 10.4375l-2.171875 0l0 -2.625q-0.78125 1.3125 -2.265625 2.046875q-1.484375 0.734375 -3.53125 0.734375q-2.8125 0 -4.484375 -1.34375q-1.65625 -1.34375 -1.65625 -3.546875q0 -2.140625 1.546875 -3.453125q1.546875 -1.3125 4.9375 -1.3125l5.34375 0l0 -1.03125q0 -2.171875 -1.21875 -3.296875q-1.203125 -1.140625 -3.546875 -1.140625q-1.59375 0 -3.078125 0.53125q-1.46875 0.515625 -2.515625 1.453125l-1.03125 -1.703125q1.28125 -1.09375 3.078125 -1.671875q1.796875 -0.59375 3.78125 -0.59375zm-0.8125 15.328125q1.921875 0 3.296875 -0.875q1.375 -0.890625 2.046875 -2.5625l0 -2.75l-5.28125 0q-4.3125 0 -4.3125 3.015625q0 1.46875 1.109375 2.328125q1.125 0.84375 3.140625 0.84375zm22.380066 -15.328125q3.15625 0 5.03125 1.84375q1.875 1.828125 1.875 5.34375l0 9.765625l-2.265625 0l0 -9.53125q0 -2.625 -1.3125 -4.0q-1.3125 -1.375 -3.75 -1.375q-2.71875 0 -4.3125 1.609375q-1.578125 1.609375 -1.578125 4.46875l0 8.828125l-2.265625 0l0 -16.828125l2.171875 0l0 3.09375q0.921875 -1.53125 2.5625 -2.375q1.65625 -0.84375 3.84375 -0.84375zm21.945251 15.921875q-0.640625 0.578125 -1.59375 0.890625q-0.9375 0.296875 -1.953125 0.296875q-2.375 0 -3.65625 -1.28125q-1.28125 -1.28125 -1.28125 -3.609375l0 -10.171875l-3.0 0l0 -1.921875l3.0 0l0 -3.6875l2.28125 0l0 3.6875l5.109375 0l0 1.921875l-5.109375 0l0 10.046875q0 1.5 0.75 2.28125q0.75 0.78125 2.15625 0.78125q0.703125 0 1.359375 -0.21875q0.65625 -0.21875 1.140625 -0.640625l0.796875 1.625z" fill-rule="nonzero"/><path fill="#000000" fill-opacity="0.0" d="m720.16534 142.35432l48.31494 0" fill-rule="evenodd"/><path stroke="#000000" stroke-width="3.0" stroke-linejoin="round" stroke-linecap="butt" d="m720.16534 142.35432l48.31494 0" fill-rule="evenodd"/><path fill="#000000" fill-opacity="0.0" d="m768.4803 75.314964l0 249.5748" fill-rule="evenodd"/><path stroke="#000000" stroke-width="3.0" stroke-linejoin="round" stroke-linecap="butt" d="m768.4803 75.314964l0 249.5748" fill-rule="evenodd"/><path fill="#000000" fill-opacity="0.0" d="m208.0315 324.33072l560.4409 0" fill-rule="evenodd"/><path stroke="#000000" stroke-width="3.0" stroke-linejoin="round" stroke-linecap="butt" d="m208.0315 324.33072l560.4409 0" fill-rule="evenodd"/><path fill="#000000" fill-opacity="0.0" d="m208.03937 191.07874l0 134.48819" fill-rule="evenodd"/><path stroke="#000000" stroke-width="3.0" stroke-linejoin="round" stroke-linecap="butt" d="m208.03937 201.35999l0 124.20694" fill-rule="evenodd"/><path fill="#000000" stroke="#000000" stroke-width="3.0" stroke-linecap="butt" d="m208.03937 201.36l3.3737488 3.3737488l-3.3737488 -9.269302l-3.3737488 9.269302z" fill-rule="evenodd"/><path fill="#000000" fill-opacity="0.0" d="m208.03937 264.88977l55.685028 0l0 35.811005l-55.685028 0z" fill-rule="evenodd"/><path fill="#000000" d="m227.62758 274.5384q2.234375 0 3.875 0.75q1.640625 0.734375 2.53125 2.109375q0.890625 1.359375 0.890625 3.234375q0 1.84375 -0.890625 3.234375q-0.890625 1.375 -2.53125 2.109375q-1.640625 0.734375 -3.875 0.734375l-3.390625 0l0 4.625l-3.890625 0l0 -16.796875l7.28125 0zm-0.21875 9.0q1.75 0 2.65625 -0.75q0.921875 -0.765625 0.921875 -2.15625q0 -1.421875 -0.921875 -2.171875q-0.90625 -0.75 -2.65625 -0.75l-3.171875 0l0 5.828125l3.171875 0zm26.22969 -9.0l-7.265625 16.796875l-3.84375 0l-7.25 -16.796875l4.203125 0l5.109375 12.0l5.1875 -12.0l3.859375 0z" fill-rule="nonzero"/><path fill="#000000" fill-opacity="0.0" d="m111.0 106.543304l48.314957 0l0 35.81102l-48.314957 0z" fill-rule="evenodd"/><path fill="#000000" d="m145.59183 126.16944l-8.921875 0l0 8.734383l-3.03125 0l0 -8.734383l-8.921875 0l0 -2.828125l8.921875 0l0 -8.78125l3.03125 0l0 8.78125l8.921875 0l0 2.828125z" fill-rule="nonzero"/><path fill="#000000" fill-opacity="0.0" d="m159.31496 195.05774l48.314972 0l0 35.81102l-48.314972 0z" fill-rule="evenodd"/><path fill="#000000" d="m177.17941 215.54326l12.578125 0l0 2.984375l-12.578125 0l0 -2.984375z" fill-rule="nonzero"/><path fill="#000000" fill-opacity="0.0" d="m135.86613 40.92651l144.34645 0l0 48.724407l-144.34645 0z" fill-rule="evenodd"/><path fill="#000000" d="m153.17642 64.83371q-1.046875 -1.7187462 -1.609375 -3.9531212q-0.5625 -2.234375 -0.5625 -4.78125q0 -2.5625 0.5625 -4.796875q0.5625 -2.25 1.609375 -3.9375l1.265625 0q-1.109375 1.890625 -1.625 4.0625q-0.5 2.15625 -0.5 4.671875q0 2.515625 0.5 4.6875q0.515625 2.15625 1.625 4.046871l-1.265625 0zm7.762909 -3.5156212q-1.46875 0 -2.796875 -0.46875q-1.328125 -0.46875 -2.0625 -1.21875l0.546875 -1.078125q0.703125 0.71875 1.875 1.15625q1.1875 0.4375 2.4375 0.4375q1.75 0 2.625 -0.640625q0.875 -0.640625 0.875 -1.671875q0 -0.78125 -0.484375 -1.25q-0.46875 -0.46875 -1.15625 -0.71875q-0.6875 -0.25 -1.921875 -0.546875q-1.46875 -0.375 -2.359375 -0.71875q-0.875 -0.34375 -1.5 -1.046875q-0.625 -0.71875 -0.625 -1.9375q0 -0.984375 0.515625 -1.796875q0.53125 -0.8125 1.609375 -1.296875q1.09375 -0.484375 2.6875 -0.484375q1.125 0 2.1875 0.3125q1.078125 0.296875 1.875 0.84375l-0.46875 1.109375q-0.828125 -0.546875 -1.765625 -0.8125q-0.921875 -0.28125 -1.828125 -0.28125q-1.703125 0 -2.578125 0.671875q-0.859375 0.65625 -0.859375 1.703125q0 0.78125 0.46875 1.265625q0.46875 0.46875 1.1875 0.71875q0.71875 0.25 1.9375 0.546875q1.4375 0.359375 2.3125 0.703125q0.890625 0.34375 1.5 1.046875q0.625 0.703125 0.625 1.890625q0 0.984375 -0.53125 1.796875q-0.53125 0.8125 -1.640625 1.296875q-1.09375 0.46875 -2.6875 0.46875zm16.426727 -9.921875l0 9.8125l-1.265625 0l0 -1.796875q-0.515625 0.90625 -1.4375 1.40625q-0.90625 0.484375 -2.09375 0.484375q-1.921875 0 -3.03125 -1.0625q-1.109375 -1.078125 -1.109375 -3.15625l0 -5.6875l1.328125 0l0 5.5625q0 1.546875 0.765625 2.359375q0.765625 0.796875 2.1875 0.796875q1.546875 0 2.4375 -0.9375q0.890625 -0.953125 0.890625 -2.640625l0 -5.140625l1.328125 0zm8.774414 -0.078125q1.375 0 2.484375 0.625q1.125 0.625 1.765625 1.765625q0.640625 1.140625 0.640625 2.59375q0 1.453125 -0.640625 2.59375q-0.640625 1.140625 -1.765625 1.78125q-1.109375 0.625 -2.484375 0.625q-1.234375 0 -2.21875 -0.515625q-0.96875 -0.53125 -1.578125 -1.515625l0 1.9375l-1.265625 0l0 -13.84375l1.328125 0l0 5.890625q0.609375 -0.953125 1.5625 -1.4375q0.96875 -0.5 2.171875 -0.5zm-0.09375 8.8125q1.015625 0 1.859375 -0.46875q0.84375 -0.484375 1.3125 -1.359375q0.484375 -0.875 0.484375 -2.0q0 -1.125 -0.484375 -2.0q-0.46875 -0.875 -1.3125 -1.34375q-0.84375 -0.484375 -1.859375 -0.484375q-1.046875 0 -1.875 0.484375q-0.828125 0.46875 -1.3125 1.34375q-0.46875 0.875 -0.46875 2.0q0 1.125 0.46875 2.0q0.484375 0.875 1.3125 1.359375q0.828125 0.46875 1.875 0.46875zm12.852066 0.484375q-0.375 0.328125 -0.921875 0.515625q-0.546875 0.171875 -1.15625 0.171875q-1.375 0 -2.125 -0.75q-0.734375 -0.75 -0.734375 -2.109375l0 -5.921875l-1.765625 0l0 -1.125l1.765625 0l0 -2.140625l1.3125 0l0 2.140625l2.984375 0l0 1.125l-2.984375 0l0 5.859375q0 0.875 0.4375 1.328125q0.4375 0.453125 1.265625 0.453125q0.40625 0 0.78125 -0.125q0.390625 -0.140625 0.671875 -0.375l0.46875 0.953125zm3.668167 -7.296875q0.46875 -0.984375 1.390625 -1.484375q0.921875 -0.515625 2.296875 -0.515625l0 1.296875l-0.328125 -0.03125q-1.546875 0 -2.421875 0.953125q-0.875 0.953125 -0.875 2.671875l0 5.0l-1.328125 0l0 -9.8125l1.265625 0l0 1.921875zm9.485031 -2.0q1.921875 0 2.9375 0.96875q1.03125 0.953125 1.03125 2.84375l0 6.078125l-1.265625 0l0 -1.53125q-0.453125 0.765625 -1.328125 1.203125q-0.859375 0.421875 -2.046875 0.421875q-1.640625 0 -2.609375 -0.78125q-0.96875 -0.78125 -0.96875 -2.078125q0 -1.25 0.890625 -2.015625q0.90625 -0.765625 2.890625 -0.765625l3.109375 0l0 -0.59375q0 -1.265625 -0.703125 -1.921875q-0.703125 -0.671875 -2.0625 -0.671875q-0.9375 0 -1.796875 0.3125q-0.859375 0.3125 -1.46875 0.84375l-0.609375 -0.984375q0.75 -0.640625 1.796875 -0.984375q1.046875 -0.34375 2.203125 -0.34375zm-0.46875 8.9375q1.125 0 1.921875 -0.515625q0.796875 -0.515625 1.1875 -1.484375l0 -1.59375l-3.078125 0q-2.515625 0 -2.515625 1.75q0 0.859375 0.65625 1.359375q0.65625 0.484375 1.828125 0.484375zm12.138275 1.046875q-1.453125 0 -2.59375 -0.625q-1.140625 -0.640625 -1.796875 -1.78125q-0.65625 -1.15625 -0.65625 -2.59375q0 -1.4375 0.65625 -2.578125q0.65625 -1.140625 1.796875 -1.765625q1.140625 -0.640625 2.59375 -0.640625q1.28125 0 2.265625 0.5q1.0 0.484375 1.578125 1.4375l-0.984375 0.671875q-0.484375 -0.71875 -1.234375 -1.078125q-0.734375 -0.375 -1.625 -0.375q-1.0625 0 -1.90625 0.484375q-0.84375 0.46875 -1.328125 1.34375q-0.46875 0.875 -0.46875 2.0q0 1.140625 0.46875 2.015625q0.484375 0.859375 1.328125 1.34375q0.84375 0.46875 1.90625 0.46875q0.890625 0 1.625 -0.359375q0.75 -0.359375 1.234375 -1.078125l0.984375 0.671875q-0.578125 0.953125 -1.59375 1.453125q-1.0 0.484375 -2.25 0.484375zm11.724838 -0.6875q-0.375 0.328125 -0.921875 0.515625q-0.546875 0.171875 -1.15625 0.171875q-1.375 0 -2.125 -0.75q-0.734375 -0.75 -0.734375 -2.109375l0 -5.921875l-1.765625 0l0 -1.125l1.765625 0l0 -2.140625l1.3125 0l0 2.140625l2.984375 0l0 1.125l-2.984375 0l0 5.859375q0 0.875 0.4375 1.328125q0.4375 0.453125 1.265625 0.453125q0.40625 0 0.78125 -0.125q0.390625 -0.140625 0.671875 -0.375l0.46875 0.953125zm12.462372 -12.46875q2.5 0 3.90625 1.203125q1.421875 1.1875 1.421875 3.28125q0 2.078125 -1.421875 3.265625q-1.40625 1.1875 -3.90625 1.1875l-3.515625 0l0 4.125l-1.375 0l0 -13.0625l4.890625 0zm-0.03125 7.734375q1.9375 0 2.953125 -0.84375q1.03125 -0.859375 1.03125 -2.40625q0 -1.59375 -1.03125 -2.4375q-1.015625 -0.84375 -2.953125 -0.84375l-3.484375 0l0 6.53125l3.484375 0zm19.096527 -7.734375l-5.78125 13.0625l-1.359375 0l-5.78125 -13.0625l1.484375 0l5.0 11.34375l5.03125 -11.34375l1.40625 0z" fill-rule="nonzero"/><path fill="#000000" d="m172.01445 70.39621q-0.859375 0 -1.296875 0.46875q-0.4375 0.453125 -0.4375 1.375l0 1.15625l3.015625 0l0 1.125l-2.984375 0l0 8.6875l-1.3125 0l0 -8.6875l-1.765625 0l0 -1.125l1.765625 0l0 -1.21875q0 -1.34375 0.765625 -2.125q0.78125 -0.78125 2.1875 -0.78125q0.5625 0 1.078125 0.15625q0.53125 0.15625 0.890625 0.453125l-0.453125 1.0q-0.578125 -0.484375 -1.453125 -0.484375zm5.83342 4.921875q0.46875 -0.984375 1.390625 -1.484375q0.921875 -0.515625 2.296875 -0.515625l0 1.296875l-0.328125 -0.03125q-1.546875 0 -2.421875 0.953125q-0.875 0.953125 -0.875 2.671875l0 5.0l-1.328125 0l0 -9.8125l1.265625 0l0 1.921875zm9.988495 7.984375q-1.421875 0 -2.5625 -0.640625q-1.125 -0.640625 -1.78125 -1.78125q-0.65625 -1.140625 -0.65625 -2.578125q0 -1.4375 0.65625 -2.578125q0.65625 -1.140625 1.78125 -1.765625q1.140625 -0.640625 2.5625 -0.640625q1.421875 0 2.546875 0.640625q1.140625 0.625 1.78125 1.765625q0.65625 1.140625 0.65625 2.578125q0 1.4375 -0.65625 2.578125q-0.640625 1.140625 -1.78125 1.78125q-1.125 0.640625 -2.546875 0.640625zm0 -1.171875q1.046875 0 1.875 -0.46875q0.828125 -0.484375 1.296875 -1.359375q0.46875 -0.875 0.46875 -2.0q0 -1.125 -0.46875 -2.0q-0.46875 -0.875 -1.296875 -1.34375q-0.828125 -0.484375 -1.875 -0.484375q-1.046875 0 -1.875 0.484375q-0.828125 0.46875 -1.3125 1.34375q-0.46875 0.875 -0.46875 2.0q0 1.125 0.46875 2.0q0.484375 0.875 1.3125 1.359375q0.828125 0.46875 1.875 0.46875zm19.916214 -8.8125q1.859375 0 2.90625 1.0625q1.0625 1.0625 1.0625 3.140625l0 5.6875l-1.328125 0l0 -5.5625q0 -1.53125 -0.75 -2.328125q-0.734375 -0.796875 -2.0625 -0.796875q-1.53125 0 -2.421875 0.9375q-0.875 0.9375 -0.875 2.59375l0 5.15625l-1.3125 0l0 -5.5625q0 -1.53125 -0.75 -2.328125q-0.734375 -0.796875 -2.09375 -0.796875q-1.515625 0 -2.40625 0.9375q-0.875 0.9375 -0.875 2.59375l0 5.15625l-1.328125 0l0 -9.8125l1.265625 0l0 1.796875q0.53125 -0.90625 1.453125 -1.390625q0.9375 -0.484375 2.15625 -0.484375q1.234375 0 2.125 0.53125q0.90625 0.515625 1.359375 1.546875q0.546875 -0.96875 1.5625 -1.515625q1.015625 -0.5625 2.3125 -0.5625zm16.33847 10.0q-1.46875 0 -2.796875 -0.46875q-1.328125 -0.46875 -2.0625 -1.21875l0.546875 -1.078125q0.703125 0.71875 1.875 1.15625q1.1875 0.4375 2.4375 0.4375q1.75 0 2.625 -0.640625q0.875 -0.640625 0.875 -1.671875q0 -0.78125 -0.484375 -1.25q-0.46875 -0.46875 -1.15625 -0.71875q-0.6875 -0.25 -1.921875 -0.546875q-1.46875 -0.375 -2.359375 -0.71875q-0.875 -0.34375 -1.5 -1.046875q-0.625 -0.71875 -0.625 -1.9375q0 -0.984375 0.515625 -1.796875q0.53125 -0.8125 1.609375 -1.296875q1.09375 -0.484375 2.6875 -0.484375q1.125 0 2.1875 0.3125q1.078125 0.296875 1.875 0.84375l-0.46875 1.109375q-0.828125 -0.546875 -1.765625 -0.8125q-0.921875 -0.28125 -1.828125 -0.28125q-1.703125 0 -2.578125 0.671875q-0.859375 0.65625 -0.859375 1.703125q0 0.78125 0.46875 1.265625q0.46875 0.46875 1.1875 0.71875q0.71875 0.25 1.9375 0.546875q1.4375 0.359375 2.3125 0.703125q0.890625 0.34375 1.5 1.046875q0.625 0.703125 0.625 1.890625q0 0.984375 -0.53125 1.796875q-0.53125 0.8125 -1.640625 1.296875q-1.09375 0.46875 -2.6875 0.46875zm12.754852 -13.171875q2.5 0 3.90625 1.203125q1.421875 1.1875 1.421875 3.28125q0 2.078125 -1.421875 3.265625q-1.40625 1.1875 -3.90625 1.1875l-3.515625 0l0 4.125l-1.375 0l0 -13.0625l4.890625 0zm-0.03125 7.734375q1.9375 0 2.953125 -0.84375q1.03125 -0.859375 1.03125 -2.40625q0 -1.59375 -1.03125 -2.4375q-1.015625 -0.84375 -2.953125 -0.84375l-3.484375 0l0 6.53125l3.484375 0zm6.955475 8.953125q1.09375 -1.890625 1.609375 -4.046875q0.53125 -2.15625 0.53125 -4.6875q0 -2.546875 -0.53125 -4.6875q-0.515625 -2.15625 -1.609375 -4.046875l1.265625 0q1.046875 1.6875 1.609375 3.9375q0.578125 2.234375 0.578125 4.796875q0 2.546875 -0.5625 4.796875q-0.5625 2.234375 -1.625 3.9375l-1.265625 0z" fill-rule="nonzero"/><path fill="#000000" fill-opacity="0.0" d="m477.55118 142.35432l86.86612 0" fill-rule="evenodd"/><path stroke="#000000" stroke-width="3.0" stroke-linejoin="round" stroke-linecap="butt" d="m477.55118 142.35432l76.58487 0" fill-rule="evenodd"/><path fill="#000000" stroke="#000000" stroke-width="3.0" stroke-linecap="butt" d="m554.13605 142.35432l-3.3737183 3.373764l9.269287 -3.373764l-9.269287 -3.3737488z" fill-rule="evenodd"/><path fill="#000000" fill-opacity="0.0" d="m696.30707 26.590551l144.3465 0l0 48.72441l-144.3465 0z" fill-rule="evenodd"/><path fill="#000000" d="m738.67004 46.872753l-2.984375 -4.203125q-0.5 0.0625 -1.046875 0.0625l-3.515625 0l0 4.140625l-1.375 0l0 -13.0625l4.890625 0q2.5 0 3.90625 1.203125q1.421875 1.1875 1.421875 3.28125q0 1.53125 -0.78125 2.59375q-0.765625 1.046875 -2.203125 1.5l3.203125 4.484375l-1.515625 0zm-4.0625 -5.3125q1.9375 0 2.953125 -0.859375q1.03125 -0.859375 1.03125 -2.40625q0 -1.59375 -1.03125 -2.4375q-1.015625 -0.84375 -2.953125 -0.84375l-3.484375 0l0 6.546875l3.484375 0zm16.894714 0.8125l-8.203125 0q0.109375 1.53125 1.171875 2.484375q1.0625 0.9375 2.6875 0.9375q0.90625 0 1.671875 -0.328125q0.765625 -0.328125 1.328125 -0.96875l0.75 0.859375q-0.65625 0.78125 -1.640625 1.203125q-0.96875 0.40625 -2.15625 0.40625q-1.5 0 -2.671875 -0.640625q-1.15625 -0.640625 -1.8125 -1.78125q-0.65625 -1.140625 -0.65625 -2.578125q0 -1.4375 0.625 -2.578125q0.625 -1.140625 1.71875 -1.765625q1.09375 -0.640625 2.453125 -0.640625q1.359375 0 2.4375 0.640625q1.078125 0.625 1.6875 1.765625q0.625 1.125 0.625 2.578125l-0.015625 0.40625zm-4.734375 -4.25q-1.421875 0 -2.390625 0.90625q-0.953125 0.90625 -1.078125 2.359375l6.953125 0q-0.125 -1.453125 -1.09375 -2.359375q-0.953125 -0.90625 -2.390625 -0.90625zm10.096497 8.84375q-1.203125 0 -2.296875 -0.34375q-1.09375 -0.34375 -1.703125 -0.875l0.59375 -1.046875q0.625 0.5 1.546875 0.8125q0.9375 0.296875 1.953125 0.296875q1.328125 0 1.96875 -0.421875q0.65625 -0.421875 0.65625 -1.1875q0 -0.53125 -0.359375 -0.84375q-0.34375 -0.3125 -0.890625 -0.46875q-0.546875 -0.15625 -1.4375 -0.3125q-1.1875 -0.21875 -1.921875 -0.453125q-0.734375 -0.234375 -1.25 -0.78125q-0.5 -0.5625 -0.5 -1.5625q0 -1.234375 1.015625 -2.015625q1.03125 -0.78125 2.859375 -0.78125q0.953125 0 1.90625 0.25q0.953125 0.25 1.562561 0.671875l-0.57818604 1.0625q-1.203125 -0.84375 -2.890625 -0.84375q-1.265625 0 -1.90625 0.453125q-0.640625 0.4375 -0.640625 1.171875q0 0.5625 0.359375 0.90625q0.359375 0.328125 0.890625 0.484375q0.546875 0.15625 1.5 0.328125q1.171875 0.21875 1.875 0.453125q0.71875 0.21875 1.218811 0.765625q0.515625 0.53125 0.515625 1.484375q0 1.28125 -1.078186 2.046875q-1.078125 0.75 -2.96875 0.75zm6.4823 -9.90625l1.328125 0l0 9.8125l-1.328125 0l0 -9.8125zm0.671875 -2.140625q-0.40625 0 -0.6875 -0.28125q-0.28125 -0.28125 -0.28125 -0.671875q0 -0.375 0.28125 -0.65625q0.28125 -0.28125 0.6875 -0.28125q0.40625 0 0.6875 0.28125q0.28125 0.265625 0.28125 0.640625q0 0.40625 -0.28125 0.6875q-0.28125 0.28125 -0.6875 0.28125zm6.9873047 12.046875q-1.203125 0 -2.296875 -0.34375q-1.09375 -0.34375 -1.703125 -0.875l0.59375 -1.046875q0.625 0.5 1.546875 0.8125q0.9375 0.296875 1.953125 0.296875q1.328125 0 1.96875 -0.421875q0.65625 -0.421875 0.65625 -1.1875q0 -0.53125 -0.359375 -0.84375q-0.34375 -0.3125 -0.890625 -0.46875q-0.546875 -0.15625 -1.4375 -0.3125q-1.1875 -0.21875 -1.921875 -0.453125q-0.734375 -0.234375 -1.25 -0.78125q-0.5 -0.5625 -0.5 -1.5625q0 -1.234375 1.015625 -2.015625q1.03125 -0.78125 2.859375 -0.78125q0.953125 0 1.90625 0.25q0.953125 0.25 1.5625 0.671875l-0.578125 1.0625q-1.203125 -0.84375 -2.890625 -0.84375q-1.265625 0 -1.90625 0.453125q-0.640625 0.4375 -0.640625 1.171875q0 0.5625 0.359375 0.90625q0.359375 0.328125 0.890625 0.484375q0.546875 0.15625 1.5 0.328125q1.171875 0.21875 1.875 0.453125q0.71875 0.21875 1.21875 0.765625q0.515625 0.53125 0.515625 1.484375q0 1.28125 -1.078125 2.046875q-1.078125 0.75 -2.96875 0.75zm11.654175 -0.6875q-0.375 0.328125 -0.921875 0.515625q-0.546875 0.171875 -1.15625 0.171875q-1.375 0 -2.125 -0.75q-0.734375 -0.75 -0.734375 -2.109375l0 -5.921875l-1.765625 0l0 -1.125l1.765625 0l0 -2.140625l1.3125 0l0 2.140625l2.984375 0l0 1.125l-2.984375 0l0 5.859375q0 0.875 0.4375 1.328125q0.4375 0.453125 1.265625 0.453125q0.40625 0 0.78125 -0.125q0.390625 -0.140625 0.671875 -0.375l0.46875 0.953125zm2.4025269 -9.21875l1.328125 0l0 9.8125l-1.328125 0l0 -9.8125zm0.671875 -2.140625q-0.40625 0 -0.6875 -0.28125q-0.28125 -0.28125 -0.28125 -0.671875q0 -0.375 0.28125 -0.65625q0.28125 -0.28125 0.6875 -0.28125q0.40625 0 0.6875 0.28125q0.28125 0.265625 0.28125 0.640625q0 0.40625 -0.28125 0.6875q-0.28125 0.28125 -0.6875 0.28125zm12.59668 2.140625l-4.359375 9.8125l-1.375 0l-4.34375 -9.8125l1.390625 0l3.671875 8.359375l3.703125 -8.359375l1.3125 0zm10.128601 5.3125l-8.203125 0q0.109375 1.53125 1.171875 2.484375q1.0625 0.9375 2.6875 0.9375q0.90625 0 1.671875 -0.328125q0.765625 -0.328125 1.328125 -0.96875l0.75 0.859375q-0.65625 0.78125 -1.640625 1.203125q-0.96875 0.40625 -2.15625 0.40625q-1.5 0 -2.671875 -0.640625q-1.15625 -0.640625 -1.8125 -1.78125q-0.65625 -1.140625 -0.65625 -2.578125q0 -1.4375 0.625 -2.578125q0.625 -1.140625 1.71875 -1.765625q1.09375 -0.640625 2.453125 -0.640625q1.359375 0 2.4375 0.640625q1.078125 0.625 1.6875 1.765625q0.625 1.125 0.625 2.578125l-0.015625 0.40625zm-4.734375 -4.25q-1.421875 0 -2.390625 0.90625q-0.953125 0.90625 -1.078125 2.359375l6.953125 0q-0.125 -1.453125 -1.09375 -2.359375q-0.953125 -0.90625 -2.390625 -0.90625z" fill-rule="nonzero"/><path fill="#000000" d="m741.41223 57.01338l0 5.125l6.765625 0l0 1.1875l-6.765625 0l0 5.546879l-1.375 0l0 -13.062504l8.953125 0l0 1.203125l-7.578125 0zm13.832825 11.953129q-1.421875 0 -2.5625 -0.640625q-1.125 -0.640625 -1.78125 -1.78125q-0.65625 -1.140625 -0.65625 -2.5781288q0 -1.4375 0.65625 -2.578125q0.65625 -1.140625 1.78125 -1.765625q1.140625 -0.640625 2.5625 -0.640625q1.421875 0 2.546875 0.640625q1.140625 0.625 1.78125 1.765625q0.65625 1.140625 0.65625 2.578125q0 1.4375038 -0.65625 2.5781288q-0.640625 1.140625 -1.78125 1.78125q-1.125 0.640625 -2.546875 0.640625zm0 -1.171875q1.046875 0 1.875 -0.46875q0.828125 -0.484375 1.296875 -1.359375q0.46875 -0.875 0.46875 -2.0000038q0 -1.125 -0.46875 -2.0q-0.46875 -0.875 -1.296875 -1.34375q-0.828125 -0.484375 -1.875 -0.484375q-1.046875 0 -1.875 0.484375q-0.828125 0.46875 -1.3125 1.34375q-0.46875 0.875 -0.46875 2.0q0 1.1250038 0.46875 2.0000038q0.484375 0.875 1.3125 1.359375q0.828125 0.46875 1.875 0.46875zm8.947449 -6.812504q0.46875 -0.984375 1.390625 -1.484375q0.921875 -0.515625 2.296875 -0.515625l0 1.296875l-0.328125 -0.03125q-1.546875 0 -2.421875 0.953125q-0.875 0.953125 -0.875 2.671875l0 5.000004l-1.328125 0l0 -9.812504l1.265625 0l0 1.921875zm10.0354 7.984379q-1.453125 0 -2.59375 -0.625q-1.140625 -0.640625 -1.796875 -1.78125q-0.65625 -1.15625 -0.65625 -2.5937538q0 -1.4375 0.65625 -2.578125q0.65625 -1.140625 1.796875 -1.765625q1.140625 -0.640625 2.59375 -0.640625q1.28125 0 2.265625 0.5q1.0 0.484375 1.578125 1.4375l-0.984375 0.671875q-0.484375 -0.71875 -1.234375 -1.078125q-0.734375 -0.375 -1.625 -0.375q-1.0625 0 -1.90625 0.484375q-0.84375 0.46875 -1.328125 1.34375q-0.46875 0.875 -0.46875 2.0q0 1.1406288 0.46875 2.0156288q0.484375 0.859375 1.328125 1.34375q0.84375 0.46875 1.90625 0.46875q0.890625 0 1.625 -0.359375q0.75 -0.359375 1.234375 -1.078125l0.984375 0.671875q-0.578125 0.953125 -1.59375 1.453125q-1.0 0.484375 -2.25 0.484375zm14.819824 -4.59375l-8.203125 0q0.109375 1.53125 1.171875 2.484375q1.0625 0.9375 2.6875 0.9375q0.90625 0 1.671875 -0.328125q0.765625 -0.328125 1.328125 -0.96875l0.75 0.859375q-0.65625 0.78125 -1.640625 1.203125q-0.96875 0.40625 -2.15625 0.40625q-1.5 0 -2.671875 -0.640625q-1.15625 -0.640625 -1.8125 -1.78125q-0.65625 -1.140625 -0.65625 -2.5781288q0 -1.4375 0.625 -2.578125q0.625 -1.140625 1.71875 -1.765625q1.09375 -0.640625 2.453125 -0.640625q1.359375 0 2.4375 0.640625q1.078125 0.625 1.6875 1.765625q0.625 1.125 0.625 2.578125l-0.015625 0.4062538zm-4.734375 -4.250004q-1.421875 0 -2.390625 0.90625q-0.953125 0.90625 -1.078125 2.359375l6.953125 0q-0.125 -1.453125 -1.09375 -2.359375q-0.953125 -0.90625 -2.390625 -0.90625zm10.096497 8.843754q-1.203125 0 -2.296875 -0.34375q-1.09375 -0.34375 -1.703125 -0.875l0.59375 -1.046875q0.625 0.5 1.546875 0.8125q0.9375 0.296875 1.953125 0.296875q1.328125 0 1.96875 -0.421875q0.65625 -0.421875 0.65625 -1.1875q0 -0.53125 -0.359375 -0.84375q-0.34375 -0.3125 -0.890625 -0.46875q-0.546875 -0.15625 -1.4375 -0.3125q-1.1875 -0.21875 -1.921875 -0.453125q-0.734375 -0.23437881 -1.25 -0.7812538q-0.5 -0.5625 -0.5 -1.5625q0 -1.234375 1.015625 -2.015625q1.03125 -0.78125 2.859375 -0.78125q0.953125 0 1.90625 0.25q0.953125 0.25 1.5625 0.671875l-0.578125 1.0625q-1.203125 -0.84375 -2.890625 -0.84375q-1.265625 0 -1.90625 0.453125q-0.640625 0.4375 -0.640625 1.171875q0 0.5625 0.359375 0.90625q0.359375 0.328125 0.890625 0.484375q0.546875 0.15625 1.5 0.328125q1.171875 0.21875 1.875 0.453125q0.71875 0.21875381 1.21875 0.7656288q0.515625 0.53125 0.515625 1.484375q0 1.28125 -1.078125 2.046875q-1.078125 0.75 -2.96875 0.75z" fill-rule="nonzero"/></g></svg>