<svg version="1.1" viewBox="0.0 0.0 878.0314960629921 348.750656167979" fill="none" stroke="none" stroke-linecap="square" stroke-miterlimit="10" xmlns:xlink="http://www.w3.org/1999/xlink" xmlns="http://www.w3.org/2000/svg"><clipPath id="p.0"><path d="m0 0l878.0315 0l0 348.75067l-878.0315 0l0 -348.75067z" clip-rule="nonzero"/></clipPath><g clip-path="url(#p.0)"><path fill="#000000" fill-opacity="0.0" d="m0 0l878.0315 0l0 348.75067l-878.0315 0z" fill-rule="evenodd"/><path fill="#000000" fill-opacity="0.0" d="m25.393702 142.35432l133.92125 0" fill-rule="evenodd"/><path stroke="#000000" stroke-width="3.0" stroke-linejoin="round" stroke-linecap="butt" d="m25.393702 142.35432l123.64001 0" fill-rule="evenodd"/><path fill="#000000" stroke="#000000" stroke-width="3.0" stroke-linecap="butt" d="m149.0337 142.35432l-3.373764 3.373764l9.269318 -3.373764l-9.269318 -3.3737488z" fill-rule="evenodd"/><path fill="#57fff7" d="m159.31496 142.35432l0 0c0 -26.909744 21.814667 -48.724403 48.72441 -48.724403l0 0c12.922516 0 25.315765 5.1334534 34.45337 14.2710495c9.1375885 9.137596 14.271057 21.530838 14.271057 34.453354l0 0c0 26.90976 -21.814682 48.72441 -48.724426 48.72441l0 0c-26.909744 0 -48.72441 -21.814651 -48.72441 -48.72441z" fill-rule="evenodd"/><path fill="#000000" d="m190.41437 122.91933l31.78125 0l0.84375 10.65625l-1.1875 0q-0.21875 -3.15625 -1.0625 -4.828125q-0.84375 -1.671875 -2.3125 -2.421875q-1.46875 -0.75 -4.65625 -0.75l-14.46875 0l12.90625 16.5625l-14.6875 17.34375l16.09375 0q4.375 0 6.6875 -1.40625q2.3125 -1.40625 3.46875 -5.875l1.1875 0.28125l-1.8125 12.8125l-32.78125 0l0 -1.125l16.3125 -19.25l-16.3125 -20.875l0 -1.125z" fill-rule="nonzero"/><path fill="#000000" fill-opacity="0.0" d="m51.779526 106.543304l55.685043 0l0 35.81102l-55.685043 0z" fill-rule="evenodd"/><path fill="#000000" d="m76.89939 116.738815l0.125 5.296875l-0.484375 0q-0.34375 -2.0 -1.671875 -3.203125q-1.328125 -1.21875 -2.875 -1.21875q-1.1875 0 -1.890625 0.640625q-0.703125 0.640625 -0.703125 1.46875q0 0.53125 0.25 0.9375q0.34375 0.546875 1.09375 1.09375q0.546875 0.375 2.546875 1.359375q2.78125 1.375 3.75 2.59375q0.96875 1.21875 0.96875 2.796875q0 1.984375 -1.5625 3.421875q-1.546875 1.4375 -3.9375 1.4375q-0.75 0 -1.421875 -0.15625q-0.65625 -0.140625 -1.671875 -0.578125q-0.5625 -0.234375 -0.921875 -0.234375q-0.3125 0 -0.65625 0.234375q-0.328125 0.234375 -0.546875 0.71875l-0.421875 0l0 -6.0l0.421875 0q0.515625 2.53125 1.984375 3.859375q1.484375 1.328125 3.171875 1.328125q1.3125 0 2.09375 -0.703125q0.78125 -0.71875 0.78125 -1.671875q0 -0.5625 -0.296875 -1.078125q-0.296875 -0.53125 -0.90625 -1.0q-0.609375 -0.484375 -2.15625 -1.25q-2.171875 -1.0625 -3.125 -1.8125q-0.9375 -0.75 -1.453125 -1.671875q-0.515625 -0.9375 -0.515625 -2.046875q0 -1.890625 1.390625 -3.21875q1.40625 -1.34375 3.53125 -1.34375q0.765625 0 1.5 0.1875q0.546875 0.140625 1.328125 0.515625q0.796875 0.375 1.109375 0.375q0.3125 0 0.484375 -0.1875q0.171875 -0.1875 0.328125 -0.890625l0.359375 0zm8.550781 9.046875l0 4.40625q0 1.296875 0.15625 1.640625q0.15625 0.328125 0.5625 0.53125q0.40625 0.1875 1.484375 0.1875l0 0.4375l-8.078125 0l0 -0.4375q1.109375 0 1.5 -0.203125q0.390625 -0.203125 0.546875 -0.53125q0.15625 -0.328125 0.15625 -1.625l0 -10.3125q0 -1.28125 -0.15625 -1.609375q-0.15625 -0.34375 -0.5625 -0.53125q-0.390625 -0.203125 -1.484375 -0.203125l0 -0.4375l6.921875 0q3.421875 0 4.90625 1.21875q1.5 1.21875 1.5 3.046875q0 1.546875 -0.96875 2.65625q-0.953125 1.09375 -2.640625 1.484375q-1.140625 0.28125 -3.84375 0.28125zm0 -7.78125l0 6.875q0.390625 0.015625 0.578125 0.015625q1.4375 0 2.203125 -0.84375q0.78125 -0.84375 0.78125 -2.625q0 -1.78125 -0.78125 -2.59375q-0.765625 -0.828125 -2.296875 -0.828125l-0.484375 0z" fill-rule="nonzero"/><path fill="#000000" fill-opacity="0.0" d="m256.7638 142.35432l55.338562 0" fill-rule="evenodd"/><path stroke="#000000" stroke-width="3.0" stroke-linejoin="round" stroke-linecap="butt" d="m256.7638 142.35432l55.338562 0" fill-rule="evenodd"/><path fill="#000000" fill-opacity="0.0" d="m248.33333 106.543304l64.12599 0l0 35.81102l-64.12599 0z" fill-rule="evenodd"/><path fill="#000000" d="m273.17563 127.113815l-6.015625 0q0.109375 2.1875 1.15625 3.453125q0.8125 0.96875 1.953125 0.96875q0.703125 0 1.265625 -0.390625q0.578125 -0.390625 1.234375 -1.421875l0.40625 0.265625q-0.890625 1.8125 -1.96875 2.578125q-1.078125 0.75 -2.5 0.75q-2.4375 0 -3.6875 -1.875q-1.015625 -1.515625 -1.015625 -3.75q0 -2.75 1.484375 -4.359375q1.484375 -1.625 3.484375 -1.625q1.65625 0 2.875 1.359375q1.234375 1.359375 1.328125 4.046875zm-2.890625 -0.78125q0 -1.890625 -0.203125 -2.59375q-0.203125 -0.703125 -0.640625 -1.0625q-0.234375 -0.21875 -0.65625 -0.21875q-0.609375 0 -0.984375 0.609375q-0.703125 1.03125 -0.703125 2.859375l0 0.40625l3.1875 0zm11.167969 -9.59375l0 0.53125q-1.21875 0.796875 -1.796875 1.5625q-0.796875 1.046875 -1.25 2.703125q-0.5625 2.046875 -0.5625 5.734375q0 3.46875 0.515625 5.390625q0.515625 1.921875 1.390625 3.109375q0.609375 0.8125 1.703125 1.4375l0 0.59375q-2.828125 -0.953125 -4.796875 -3.890625q-1.953125 -2.921875 -1.953125 -6.71875q0 -3.75 1.953125 -6.625q1.953125 -2.890625 4.796875 -3.828125zm5.4296875 1.28125l0 4.015625l2.609375 0l0 1.15625l-2.609375 0l0 6.765625q0 0.9375 0.078125 1.21875q0.09375 0.28125 0.3125 0.453125q0.234375 0.15625 0.421875 0.15625q0.765625 0 1.4375 -1.15625l0.359375 0.265625q-0.953125 2.25 -3.09375 2.25q-1.03125 0 -1.765625 -0.578125q-0.71875 -0.59375 -0.90625 -1.296875q-0.125 -0.40625 -0.125 -2.15625l0 -5.921875l-1.421875 0l0 -0.40625q1.46875 -1.046875 2.5 -2.1875q1.046875 -1.15625 1.8125 -2.578125l0.390625 0zm3.1328125 19.78125l0 -0.546875q1.21875 -0.8125 1.796875 -1.5625q0.78125 -1.0625 1.234375 -2.703125q0.5625 -2.0625 0.5625 -5.75q0 -3.46875 -0.515625 -5.375q-0.5 -1.921875 -1.375 -3.109375q-0.609375 -0.8125 -1.703125 -1.4375l0 -0.578125q2.828125 0.9375 4.78125 3.875q1.96875 2.921875 1.96875 6.71875q0 3.734375 -1.96875 6.625q-1.953125 2.890625 -4.78125 3.84375z" fill-rule="nonzero"/><path fill="#57fff7" d="m343.6286 38.53281l133.92126 0l0 63.307087l-133.92126 0z" fill-rule="evenodd"/><path fill="#000000" d="m382.60095 66.20593l5.25 8.109375q1.40625 2.15625 2.328125 2.765625q0.921875 0.59375 2.421875 0.59375l-0.171875 0.578125l-9.03125 0l0.140625 -0.578125q1.078125 -0.109375 1.515625 -0.515625q0.453125 -0.40625 0.453125 -0.921875q0 -0.46875 -0.15625 -0.90625q-0.125 -0.3125 -0.90625 -1.53125l-4.296875 -6.734375l-2.078125 7.015625q-0.515625 1.6875 -0.515625 2.265625q0 0.59375 0.4375 0.90625q0.4375 0.3125 2.15625 0.421875l-0.25 0.578125l-8.375 0l0.203125 -0.578125q1.21875 -0.03125 1.640625 -0.21875q0.625 -0.28125 0.921875 -0.71875q0.40625 -0.640625 1.0 -2.65625l3.734375 -12.796871q0.421875 -1.46875 0.421875 -2.359375q0 -0.625 -0.40625 -0.953125q-0.390625 -0.328125 -1.546875 -0.328125l-0.3125 0l0.1875 -0.578125l7.953125 0l-0.15625 0.578125q-0.984375 -0.015625 -1.46875 0.21875q-0.671875 0.328125 -0.984375 0.84375q-0.3125 0.515625 -0.921875 2.578125l-1.640625 5.437496l7.53125 -5.671871q1.5 -1.125 1.96875 -1.78125q0.28125 -0.40625 0.28125 -0.734375q0 -0.28125 -0.296875 -0.546875q-0.28125 -0.265625 -0.875 -0.34375l0.15625 -0.578125l6.78125 0l-0.140625 0.578125q-1.109375 0.1875 -1.875 0.5q-0.75 0.296875 -1.546875 0.828125q-0.234375 0.15625 -3.046875 2.3125l-6.484375 4.921871z" fill-rule="nonzero"/><path fill="#000000" d="m398.4447 80.83093l-0.71875 2.390625q1.140625 -1.328125 2.03125 -1.859375q0.890625 -0.53125 1.8125 -0.53125q0.921875 0 1.578125 0.734375q0.65625 0.734375 0.65625 1.90625q0 2.296875 -1.859375 4.671875q-1.859375 2.359375 -4.34375 2.359375q-0.515625 0 -0.921875 -0.125q-0.40625 -0.109375 -0.90625 -0.390625l-0.75 2.6875q-0.234375 0.78125 -0.234375 1.03125q0 0.21875 0.109375 0.375q0.125 0.171875 0.390625 0.25q0.28125 0.09375 1.078125 0.09375l-0.09375 0.390625l-4.90625 0l0.109375 -0.390625q0.96875 -0.03125 1.3125 -0.328125q0.328125 -0.296875 0.703125 -1.609375l2.640625 -9.125q0.234375 -0.875 0.234375 -1.078125q0 -0.28125 -0.15625 -0.4375q-0.15625 -0.15625 -0.5 -0.15625q-0.296875 0 -0.84375 0.078125l0 -0.40625l3.578125 -0.53125zm-2.421875 8.328125q0.640625 0.765625 1.734375 0.765625q0.546875 0 1.109375 -0.296875q0.5625 -0.296875 1.09375 -0.890625q0.53125 -0.59375 0.953125 -1.375q0.4375 -0.78125 0.765625 -1.828125q0.34375 -1.046875 0.34375 -2.078125q0 -0.84375 -0.375 -1.28125q-0.375 -0.4375 -0.890625 -0.4375q-1.125 0 -2.234375 1.296875q-1.09375 1.28125 -1.59375 3.015625l-0.90625 3.109375z" fill-rule="nonzero"/><path fill="#000000" d="m408.2025 72.36218q-0.109375 0.78125 -0.109375 1.296875q0 1.390625 0.984375 2.375q0.984375 0.96875 2.390625 0.96875q1.125 0 2.15625 -0.453125q1.046875 -0.46875 3.09375 -2.046875l0.328125 0.453125q-3.703125 3.671875 -7.0625 3.671875q-2.28125 0 -3.4375 -1.4375q-1.15625 -1.4375 -1.15625 -3.171875q0 -2.328125 1.4375 -4.765625q1.4375 -2.4375 3.609375 -3.78125q2.171875 -1.359375 4.46875 -1.359375q1.65625 0 2.453125 0.671875q0.796875 0.671875 0.796875 1.59375q0 1.296875 -1.03125 2.484375q-1.359375 1.546875 -4.0 2.5q-1.75 0.640625 -4.921875 1.0zm0.109375 -0.765625q2.3125 -0.265625 3.765625 -0.90625q1.921875 -0.859375 2.875 -2.046875q0.96875 -1.203125 0.96875 -2.28125q0 -0.65625 -0.421875 -1.0625q-0.40625 -0.40625 -1.171875 -0.40625q-1.59375 0 -3.390625 1.703125q-1.78125 1.6875 -2.625 5.0zm16.296875 13.25l-0.53125 0.25q-1.859375 -3.546875 -2.671875 -6.265625q-0.625 -2.125 -0.625 -4.28125q0 -5.03125 2.328125 -9.015625q2.859375 -4.874996 9.265625 -9.499996l0.375 0.546875q-2.890625 2.140625 -4.71875 4.796875q-2.28125 3.3124962 -3.734375 7.999996q-1.453125 4.6875 -1.453125 8.53125q0 2.9375 1.765625 6.9375zm12.953125 -24.609371l-1.21875 4.249996l2.453125 0l-0.265625 0.984375l-2.4375 0l-2.6875 9.21875q-0.4375 1.484375 -0.4375 1.921875q0 0.265625 0.125 0.40625q0.125 0.140625 0.296875 0.140625q0.390625 0 1.03125 -0.546875q0.375 -0.3125 1.671875 -1.921875l0.515625 0.390625q-1.4375 2.09375 -2.71875 2.953125q-0.875 0.59375 -1.765625 0.59375q-0.6875 0 -1.125 -0.421875q-0.4375 -0.4375 -0.4375 -1.109375q0 -0.84375 0.5 -2.578125l2.609375 -9.046875l-2.359375 0l0.15625 -0.609375q1.71875 -0.46875 2.859375 -1.3906212q1.140625 -0.9375 2.546875 -3.234375l0.6875 0zm5.234375 -3.90625l0.53125 -0.296875q1.859375 3.53125 2.65625 6.25q0.640625 2.1249962 0.640625 4.281246q0 5.046875 -2.328125 9.015625q-2.875 4.890625 -9.265625 9.515625l-0.375 -0.484375q2.890625 -2.15625 4.71875 -4.796875q2.28125 -3.3125 3.734375 -8.0q1.453125 -4.703125 1.453125 -8.546871q0 -2.9375 -1.765625 -6.9375z" fill-rule="nonzero"/><path fill="#57fff7" d="m588.4173 96.826775l155.74805 0l0 91.05512l-155.74805 0z" fill-rule="evenodd"/><path fill="#000000" d="m639.9632 144.15245l0 6.171875q0 2.0 0.4375 2.484375q0.59375 0.6875 1.796875 0.6875l0.8125 0l0 0.578125l-9.078125 0l0 -0.578125l0.796875 0q1.34375 0 1.921875 -0.875q0.3125 -0.484375 0.3125 -2.296875l0 -13.6875q0 -2.0 -0.421875 -2.484375q-0.609375 -0.6875 -1.8125 -0.6875l-0.796875 0l0 -0.578125l7.765625 0q2.84375 0 4.484375 0.59375q1.640625 0.578125 2.765625 1.96875q1.125 1.390625 1.125 3.296875q0 2.59375 -1.71875 4.21875q-1.703125 1.625 -4.828125 1.625q-0.765625 0 -1.65625 -0.109375q-0.890625 -0.109375 -1.90625 -0.328125zm0 -0.890625q0.828125 0.15625 1.46875 0.234375q0.640625 0.078125 1.09375 0.078125q1.625 0 2.796875 -1.25q1.1875 -1.265625 1.1875 -3.265625q0 -1.375 -0.5625 -2.546875q-0.5625 -1.1875 -1.59375 -1.765625q-1.03125 -0.59375 -2.34375 -0.59375q-0.796875 0 -2.046875 0.296875l0 8.8125zm17.15625 -11.40625l0 18.984375q0 1.34375 0.1875 1.78125q0.203125 0.4375 0.609375 0.671875q0.40625 0.21875 1.515625 0.21875l0 0.5625l-7.015625 0l0 -0.5625q0.984375 0 1.34375 -0.203125q0.359375 -0.203125 0.5625 -0.671875q0.203125 -0.46875 0.203125 -1.796875l0 -13.0q0 -2.421875 -0.109375 -2.96875q-0.109375 -0.5625 -0.359375 -0.765625q-0.234375 -0.203125 -0.609375 -0.203125q-0.40625 0 -1.03125 0.25l-0.265625 -0.546875l4.265625 -1.75l0.703125 0zm12.078125 20.15625q-2.203125 1.703125 -2.765625 1.96875q-0.84375 0.390625 -1.796875 0.390625q-1.484375 0 -2.453125 -1.015625q-0.953125 -1.015625 -0.953125 -2.671875q0 -1.046875 0.46875 -1.8125q0.640625 -1.0625 2.21875 -2.0q1.59375 -0.9375 5.28125 -2.28125l0 -0.5625q0 -2.140625 -0.6875 -2.9375q-0.671875 -0.796875 -1.96875 -0.796875q-0.984375 0 -1.5625 0.53125q-0.59375 0.53125 -0.59375 1.21875l0.03125 0.90625q0 0.71875 -0.375 1.109375q-0.359375 0.390625 -0.953125 0.390625q-0.578125 0 -0.953125 -0.40625q-0.359375 -0.40625 -0.359375 -1.109375q0 -1.34375 1.375 -2.46875q1.375 -1.125 3.859375 -1.125q1.90625 0 3.125 0.640625q0.921875 0.484375 1.359375 1.515625q0.28125 0.671875 0.28125 2.75l0 4.859375q0 2.046875 0.078125 2.515625q0.078125 0.453125 0.25 0.609375q0.1875 0.15625 0.421875 0.15625q0.25 0 0.4375 -0.109375q0.328125 -0.203125 1.265625 -1.140625l0 0.875q-1.75 2.34375 -3.34375 2.34375q-0.765625 0 -1.21875 -0.53125q-0.453125 -0.53125 -0.46875 -1.8125zm0 -1.015625l0 -5.453125q-2.359375 0.9375 -3.046875 1.328125q-1.234375 0.6875 -1.765625 1.4375q-0.53125 0.75 -0.53125 1.640625q0 1.125 0.671875 1.875q0.671875 0.734375 1.546875 0.734375q1.1875 0 3.125 -1.5625zm10.265625 -8.625q2.515625 -3.03125 4.796875 -3.03125q1.171875 0 2.015625 0.59375q0.84375 0.578125 1.34375 1.921875q0.34375 0.9375 0.34375 2.875l0 6.109375q0 1.359375 0.21875 1.84375q0.171875 0.390625 0.546875 0.609375q0.390625 0.21875 1.421875 0.21875l0 0.5625l-7.078125 0l0 -0.5625l0.296875 0q1.0 0 1.390625 -0.296875q0.40625 -0.3125 0.5625 -0.90625q0.0625 -0.234375 0.0625 -1.46875l0 -5.859375q0 -1.953125 -0.515625 -2.828125q-0.5 -0.890625 -1.703125 -0.890625q-1.859375 0 -3.703125 2.03125l0 7.546875q0 1.453125 0.171875 1.796875q0.21875 0.453125 0.59375 0.671875q0.390625 0.203125 1.5625 0.203125l0 0.5625l-7.078125 0l0 -0.5625l0.3125 0q1.09375 0 1.46875 -0.546875q0.390625 -0.5625 0.390625 -2.125l0 -5.3125q0 -2.578125 -0.125 -3.140625q-0.109375 -0.5625 -0.359375 -0.765625q-0.234375 -0.203125 -0.640625 -0.203125q-0.4375 0 -1.046875 0.234375l-0.234375 -0.5625l4.3125 -1.75l0.671875 0l0 3.03125zm15.984375 -7.3125l0 4.703125l3.34375 0l0 1.09375l-3.34375 0l0 9.28125q0 1.390625 0.390625 1.875q0.40625 0.484375 1.03125 0.484375q0.515625 0 1.0 -0.3125q0.484375 -0.328125 0.75 -0.953125l0.609375 0q-0.546875 1.53125 -1.546875 2.3125q-1.0 0.765625 -2.0625 0.765625q-0.71875 0 -1.40625 -0.390625q-0.6875 -0.40625 -1.015625 -1.140625q-0.328125 -0.75 -0.328125 -2.296875l0 -9.625l-2.265625 0l0 -0.515625q0.859375 -0.34375 1.75 -1.15625q0.90625 -0.828125 1.609375 -1.953125q0.359375 -0.59375 1.0 -2.171875l0.484375 0z" fill-rule="nonzero"/><path fill="#000000" fill-opacity="0.0" d="m744.16534 142.35432l24.566956 0" fill-rule="evenodd"/><path stroke="#000000" stroke-width="3.0" stroke-linejoin="round" stroke-linecap="butt" d="m744.16534 142.35432l24.566956 0" fill-rule="evenodd"/><path fill="#000000" fill-opacity="0.0" d="m768.4803 75.314964l0 249.5748" fill-rule="evenodd"/><path stroke="#000000" stroke-width="3.0" stroke-linejoin="round" stroke-linecap="butt" d="m768.4803 75.314964l0 249.5748" fill-rule="evenodd"/><path fill="#000000" fill-opacity="0.0" d="m208.0315 324.33072l560.4409 0" fill-rule="evenodd"/><path stroke="#000000" stroke-width="3.0" stroke-linejoin="round" stroke-linecap="butt" d="m208.0315 324.33072l560.4409 0" fill-rule="evenodd"/><path fill="#000000" fill-opacity="0.0" d="m208.03937 191.07874l0 134.48819" fill-rule="evenodd"/><path stroke="#000000" stroke-width="3.0" stroke-linejoin="round" stroke-linecap="butt" d="m208.03937 201.35999l0 124.20694" fill-rule="evenodd"/><path fill="#000000" stroke="#000000" stroke-width="3.0" stroke-linecap="butt" d="m208.03937 201.36l3.3737488 3.3737488l-3.3737488 -9.269302l-3.3737488 9.269302z" fill-rule="evenodd"/><path fill="#000000" fill-opacity="0.0" d="m208.03937 264.88977l55.685028 0l0 35.811005l-55.685028 0z" fill-rule="evenodd"/><path fill="#000000" d="m226.37018 284.13214l0 4.40625q0 1.296875 0.15625 1.640625q0.15625 0.328125 0.5625 0.53125q0.40625 0.1875 1.484375 0.1875l0 0.4375l-8.078125 0l0 -0.4375q1.109375 0 1.5 -0.203125q0.390625 -0.203125 0.546875 -0.53125q0.15625 -0.328125 0.15625 -1.625l0 -10.3125q0 -1.28125 -0.15625 -1.609375q-0.15625 -0.34375 -0.5625 -0.53125q-0.390625 -0.203125 -1.484375 -0.203125l0 -0.4375l6.921875 0q3.421875 0 4.90625 1.21875q1.5 1.21875 1.5 3.046875q0 1.546875 -0.96875 2.65625q-0.953125 1.09375 -2.640625 1.484375q-1.140625 0.28125 -3.84375 0.28125zm0 -7.78125l0 6.875q0.390625 0.015625 0.578125 0.015625q1.4375 0 2.203125 -0.84375q0.78125 -0.84375 0.78125 -2.625q0 -1.78125 -0.78125 -2.59375q-0.765625 -0.828125 -2.296875 -0.828125l-0.484375 0zm25.269531 -0.90625l0 0.4375q-0.875 0.140625 -1.546875 0.921875q-0.5 0.578125 -1.46875 2.75l-5.46875 12.140625l-0.390625 0l-5.453125 -12.625q-0.984375 -2.296875 -1.328125 -2.6875q-0.328125 -0.40625 -1.25 -0.5l0 -0.4375l7.625 0l0 0.4375l-0.265625 0q-1.03125 0 -1.40625 0.25q-0.265625 0.171875 -0.265625 0.515625q0 0.21875 0.09375 0.5q0.09375 0.28125 0.625 1.546875l3.390625 7.90625l3.140625 -7.046875q0.5625 -1.28125 0.6875 -1.703125q0.140625 -0.4375 0.140625 -0.75q0 -0.34375 -0.1875 -0.609375q-0.1875 -0.28125 -0.5625 -0.421875q-0.5 -0.1875 -1.328125 -0.1875l0 -0.4375l5.21875 0z" fill-rule="nonzero"/><path fill="#000000" fill-opacity="0.0" d="m111.0 106.543304l48.314957 0l0 35.81102l-48.314957 0z" fill-rule="evenodd"/><path fill="#000000" d="m145.59183 126.16944l-8.921875 0l0 8.734383l-3.03125 0l0 -8.734383l-8.921875 0l0 -2.828125l8.921875 0l0 -8.78125l3.03125 0l0 8.78125l8.921875 0l0 2.828125z" fill-rule="nonzero"/><path fill="#000000" fill-opacity="0.0" d="m159.31496 195.05774l48.314972 0l0 35.81102l-48.314972 0z" fill-rule="evenodd"/><path fill="#000000" d="m177.17941 215.54326l12.578125 0l0 2.984375l-12.578125 0l0 -2.984375z" fill-rule="nonzero"/><path fill="#000000" fill-opacity="0.0" d="m135.86613 40.92651l144.34645 0l0 48.724407l-144.34645 0z" fill-rule="evenodd"/><path fill="#000000" d="m165.38739 64.86496l0 0.328125q-1.375 -0.6875 -2.296875 -1.6093712q-1.3125 -1.328125 -2.03125 -3.125q-0.703125 -1.796875 -0.703125 -3.71875q0 -2.828125 1.390625 -5.15625q1.390625 -2.328125 3.640625 -3.328125l0 0.375q-1.125 0.625 -1.84375 1.703125q-0.71875 1.078125 -1.078125 2.734375q-0.359375 1.640625 -0.359375 3.4375q0 1.9375 0.3125 3.53125q0.234375 1.265625 0.5625 2.015625q0.34375 0.765625 0.90625 1.46875q0.578125 0.7031212 1.5 1.3437462zm8.962677 -16.296871l0 4.28125l-0.328125 0q-0.171875 -1.234375 -0.59375 -1.953125q-0.421875 -0.734375 -1.203125 -1.15625q-0.78125 -0.4375 -1.625 -0.4375q-0.9375 0 -1.5625 0.578125q-0.625 0.578125 -0.625 1.3125q0 0.5625 0.390625 1.03125q0.578125 0.6875 2.6875 1.828125q1.734375 0.921875 2.359375 1.421875q0.640625 0.5 0.984375 1.171875q0.34375 0.671875 0.34375 1.40625q0 1.40625 -1.09375 2.421875q-1.078125 1.015625 -2.796875 1.015625q-0.53125 0 -1.015625 -0.078125q-0.28125 -0.046875 -1.171875 -0.328125q-0.890625 -0.296875 -1.125 -0.296875q-0.21875 0 -0.359375 0.140625q-0.125 0.140625 -0.1875 0.5625l-0.34375 0l0 -4.234375l0.34375 0q0.234375 1.328125 0.625 2.0q0.40625 0.65625 1.234375 1.09375q0.828125 0.4375 1.8125 0.4375q1.140625 0 1.796875 -0.59375q0.65625 -0.609375 0.65625 -1.4375q0 -0.453125 -0.25 -0.90625q-0.25 -0.46875 -0.78125 -0.875q-0.34375 -0.28125 -1.9375 -1.15625q-1.578125 -0.890625 -2.25 -1.421875q-0.671875 -0.53125 -1.015625 -1.171875q-0.34375 -0.640625 -0.34375 -1.390625q0 -1.34375 1.015625 -2.296875q1.015625 -0.96875 2.59375 -0.96875q0.984375 0 2.09375 0.484375q0.5 0.234375 0.71875 0.234375q0.234375 0 0.375 -0.140625q0.15625 -0.140625 0.25 -0.578125l0.328125 0zm9.719467 4.296875l0 5.0625q0 1.4375 0.0625 1.765625q0.078125 0.328125 0.21875 0.453125q0.15625 0.125 0.359375 0.125q0.28125 0 0.640625 -0.15625l0.125 0.3125l-2.484375 1.03125l-0.421875 0l0 -1.765625q-1.078125 1.171875 -1.640625 1.46875q-0.5625 0.296875 -1.1875 0.296875q-0.703125 0 -1.21875 -0.40625q-0.515625 -0.40625 -0.71875 -1.03125q-0.1875 -0.640625 -0.1875 -1.8125l0 -3.71875q0 -0.59375 -0.140625 -0.8125q-0.125 -0.234375 -0.375 -0.359375q-0.25 -0.125 -0.90625 -0.109375l0 -0.34375l2.921875 0l0 5.578125q0 1.171875 0.40625 1.546875q0.40625 0.359375 0.984375 0.359375q0.390625 0 0.890625 -0.25q0.5 -0.25 1.171875 -0.9375l0 -4.734375q0 -0.703125 -0.265625 -0.953125q-0.25 -0.25 -1.0625 -0.265625l0 -0.34375l2.828125 0zm4.3125 1.4375q1.203125 -1.6875 2.609375 -1.6875q1.28125 0 2.234375 1.109375q0.96875 1.09375 0.96875 3.0q0 2.21875 -1.484375 3.578125q-1.265625 1.15625 -2.828125 1.15625q-0.71875 0 -1.46875 -0.25q-0.75 -0.265625 -1.546875 -0.796875l0 -8.65625q0 -1.421875 -0.0625 -1.75q-0.0625 -0.328125 -0.21875 -0.4375q-0.140625 -0.125 -0.359375 -0.125q-0.25 0 -0.640625 0.15625l-0.125 -0.328125l2.5 -1.015625l0.421875 0l0 6.046875zm0 0.578125l0 5.0q0.453125 0.453125 0.953125 0.6875q0.5 0.234375 1.015625 0.234375q0.828125 0 1.546875 -0.90625q0.71875 -0.921875 0.71875 -2.65625q0 -1.609375 -0.71875 -2.46875q-0.71875 -0.859375 -1.625 -0.859375q-0.484375 0 -0.96875 0.25q-0.359375 0.171875 -0.921875 0.71875zm9.453125 -4.765625l0 2.75l1.953125 0l0 0.640625l-1.953125 0l0 5.40625q0 0.8125 0.234375 1.09375q0.234375 0.28125 0.59375 0.28125q0.3125 0 0.59375 -0.1875q0.28125 -0.1875 0.4375 -0.546875l0.34373474 0q-0.31248474 0.890625 -0.90623474 1.34375q-0.578125 0.453125 -1.1875 0.453125q-0.421875 0 -0.828125 -0.234375q-0.390625 -0.234375 -0.59375 -0.65625q-0.1875 -0.4375 -0.1875 -1.34375l0 -5.609375l-1.3125 0l0 -0.296875q0.5 -0.203125 1.015625 -0.6875q0.53125 -0.484375 0.9375 -1.125q0.203125 -0.359375 0.578125 -1.28125l0.28125 0zm5.2145386 2.5l0 1.875q1.046875 -1.875 2.140625 -1.875q0.5 0 0.828125 0.3125q0.328125 0.296875 0.328125 0.703125q0 0.359375 -0.234375 0.609375q-0.234375 0.234375 -0.5625 0.234375q-0.328125 0 -0.71875 -0.3125q-0.390625 -0.3125 -0.578125 -0.3125q-0.171875 0 -0.359375 0.1875q-0.40625 0.359375 -0.84375 1.21875l0 4.0q0 0.703125 0.171875 1.046875q0.109375 0.25 0.40625 0.421875q0.3125 0.15625 0.875 0.15625l0 0.328125l-4.28125 0l0 -0.328125q0.640625 0 0.953125 -0.203125q0.234375 -0.140625 0.3125 -0.46875q0.046875 -0.140625 0.046875 -0.875l0 -3.234375q0 -1.453125 -0.0625 -1.734375q-0.046875 -0.28125 -0.21875 -0.40625q-0.15625 -0.125 -0.390625 -0.125q-0.28125 0 -0.640625 0.140625l-0.078125 -0.328125l2.515625 -1.03125l0.390625 0zm8.493927 7.390625q-1.28125 1.0 -1.609375 1.15625q-0.5 0.21875 -1.046875 0.21875q-0.875 0 -1.4375 -0.59375q-0.546875 -0.59375 -0.546875 -1.5625q0 -0.609375 0.265625 -1.046875q0.375 -0.625 1.296875 -1.171875q0.921875 -0.546875 3.078125 -1.328125l0 -0.328125q0 -1.25 -0.40625 -1.703125q-0.390625 -0.46875 -1.140625 -0.46875q-0.578125 0 -0.921875 0.3125q-0.34375 0.296875 -0.34375 0.703125l0.015625 0.53125q0 0.421875 -0.21875 0.65625q-0.203125 0.21875 -0.546875 0.21875q-0.34375 0 -0.5625 -0.234375q-0.203125 -0.234375 -0.203125 -0.65625q0 -0.78125 0.796875 -1.4375q0.8125 -0.65625 2.25 -0.65625q1.109375 0 1.828125 0.375q0.53125 0.28125 0.796875 0.890625q0.15625 0.390625 0.15625 1.59375l0 2.84375q0 1.1875 0.046875 1.453125q0.046875 0.265625 0.140625 0.359375q0.109375 0.09375 0.25 0.09375q0.140625 0 0.25 -0.0625q0.203125 -0.125 0.75 -0.671875l0 0.515625q-1.03125 1.359375 -1.953125 1.359375q-0.453125 0 -0.71875 -0.296875q-0.265625 -0.3125 -0.265625 -1.0625zm0 -0.59375l0 -3.171875q-1.375 0.546875 -1.78125 0.765625q-0.71875 0.40625 -1.03125 0.84375q-0.296875 0.4375 -0.296875 0.953125q0 0.65625 0.390625 1.09375q0.390625 0.421875 0.890625 0.421875q0.703125 0 1.828125 -0.90625zm10.639908 -1.375q-0.34375 1.65625 -1.328125 2.546875q-0.984375 0.875 -2.171875 0.875q-1.421875 0 -2.484375 -1.1875q-1.046875 -1.1875 -1.046875 -3.21875q0 -1.96875 1.171875 -3.203125q1.171875 -1.234375 2.8125 -1.234375q1.21875 0 2.015625 0.65625q0.796875 0.65625 0.796875 1.34375q0 0.359375 -0.234375 0.578125q-0.21875 0.203125 -0.609375 0.203125q-0.546875 0 -0.8125 -0.34375q-0.15625 -0.1875 -0.21875 -0.71875q-0.046875 -0.546875 -0.359375 -0.828125q-0.328125 -0.28125 -0.890625 -0.28125q-0.90625 0 -1.46875 0.671875q-0.734375 0.90625 -0.734375 2.359375q0 1.5 0.734375 2.640625q0.734375 1.140625 1.984375 1.140625q0.890625 0 1.609375 -0.609375q0.5 -0.421875 0.96875 -1.515625l0.265625 0.125zm3.6086578 -7.921875l0 2.75l1.953125 0l0 0.640625l-1.953125 0l0 5.40625q0 0.8125 0.234375 1.09375q0.234375 0.28125 0.59375 0.28125q0.3125 0 0.59375 -0.1875q0.28125 -0.1875 0.4375 -0.546875l0.34375 0q-0.3125 0.890625 -0.90625 1.34375q-0.578125 0.453125 -1.1875 0.453125q-0.421875 0 -0.828125 -0.234375q-0.390625 -0.234375 -0.59375 -0.65625q-0.1875 -0.4375 -0.1875 -1.34375l0 -5.609375l-1.3125 0l0 -0.296875q0.5 -0.203125 1.015625 -0.6875q0.53125 -0.484375 0.9375 -1.125q0.203125 -0.359375 0.578125 -1.28125l0.28125 0zm10.675491 5.3125l0 3.59375q0 1.171875 0.25 1.453125q0.34375 0.390625 1.046875 0.390625l0.484375 0l0 0.34375l-5.296875 0l0 -0.34375l0.46875 0q0.78125 0 1.109375 -0.5q0.1875 -0.28125 0.1875 -1.34375l0 -7.984375q0 -1.15625 -0.25 -1.4375q-0.359375 -0.40625 -1.046875 -0.40625l-0.46875 0l0 -0.34375l4.53125 0q1.65625 0 2.609375 0.34375q0.953125 0.34375 1.609375 1.15625q0.65625 0.8125 0.65625 1.921875q0 1.515625 -1.0 2.46875q-1.0 0.9375 -2.8125 0.9375q-0.453125 0 -0.96875 -0.0625q-0.515625 -0.0625 -1.109375 -0.1875zm0 -0.515625q0.484375 0.078125 0.859375 0.125q0.375 0.046875 0.625 0.046875q0.953125 0 1.640625 -0.734375q0.6875 -0.734375 0.6875 -1.890625q0 -0.8125 -0.328125 -1.5q-0.328125 -0.6875 -0.9375 -1.015625q-0.59375 -0.34375 -1.359375 -0.34375q-0.453125 0 -1.1875 0.171875l0 5.140625zm19.797607 -6.0625l0 0.34375q-0.65626526 0.125 -1.0000153 0.421875q-0.484375 0.4375 -0.859375 1.359375l-4.296875 10.515625l-0.34375 0l-4.625 -10.640625q-0.359375 -0.828125 -0.5 -1.015625q-0.234375 -0.28125 -0.5625 -0.4375q-0.328125 -0.15625 -0.90625 -0.203125l0 -0.34375l5.046875 0l0 0.34375q-0.84375 0.078125 -1.109375 0.296875q-0.25 0.203125 -0.25 0.53125q0 0.453125 0.421875 1.421875l3.140625 7.25l2.921875 -7.15625q0.421875 -1.0625 0.421875 -1.46875q0 -0.265625 -0.265625 -0.5q-0.265625 -0.25 -0.890625 -0.34375q-0.046875 -0.015625 -0.15625 -0.03125l0 -0.34375l3.8125153 0z" fill-rule="nonzero"/><path fill="#000000" d="m177.93658 75.52121l0 5.484375q0 1.171875 0.25 1.46875q0.34375 0.40625 0.90625 0.40625l0.75 0l0 0.328125l-4.96875 0l0 -0.328125l0.359375 0q0.375 0 0.671875 -0.171875q0.296875 -0.1875 0.40625 -0.5q0.125 -0.3125 0.125 -1.203125l0 -5.484375l-1.625 0l0 -0.65625l1.625 0l0 -0.546875q0 -1.25 0.390625 -2.109375q0.40625 -0.875 1.234375 -1.40625q0.828125 -0.53125 1.859375 -0.53125q0.953125 0 1.75 0.625q0.53125 0.40625 0.53125 0.921875q0 0.265625 -0.234375 0.515625q-0.234375 0.234375 -0.515625 0.234375q-0.203125 0 -0.4375 -0.140625q-0.234375 -0.15625 -0.578125 -0.65625q-0.328125 -0.5 -0.609375 -0.671875q-0.28125 -0.171875 -0.640625 -0.171875q-0.40625 0 -0.703125 0.234375q-0.296875 0.21875 -0.421875 0.6875q-0.125 0.46875 -0.125 2.40625l0 0.609375l2.15625 0l0 0.65625l-2.15625 0zm5.400177 -0.90625l0 1.875q1.046875 -1.875 2.140625 -1.875q0.5 0 0.828125 0.3125q0.328125 0.296875 0.328125 0.703125q0 0.359375 -0.234375 0.609375q-0.234375 0.234375 -0.5625 0.234375q-0.328125 0 -0.71875 -0.3125q-0.390625 -0.3125 -0.578125 -0.3125q-0.171875 0 -0.359375 0.1875q-0.40625 0.359375 -0.84375 1.21875l0 4.0q0 0.703125 0.171875 1.046875q0.109375 0.25 0.40625 0.421875q0.3125 0.15625 0.875 0.15625l0 0.328125l-4.28125 0l0 -0.328125q0.640625 0 0.953125 -0.203125q0.234375 -0.140625 0.3125 -0.46875q0.046875 -0.140625 0.046875 -0.875l0 -3.234375q0 -1.453125 -0.0625 -1.734375q-0.046875 -0.28125 -0.21875 -0.40625q-0.15625 -0.125 -0.390625 -0.125q-0.28125 0 -0.640625 0.140625l-0.078125 -0.328125l2.515625 -1.03125l0.390625 0zm7.853302 0q1.890625 0 3.03125 1.4375q0.984375 1.234375 0.984375 2.828125q0 1.125 -0.546875 2.28125q-0.53125 1.140625 -1.484375 1.71875q-0.9375 0.578125 -2.09375 0.578125q-1.890625 0 -3.0 -1.5q-0.9375 -1.265625 -0.9375 -2.84375q0 -1.140625 0.5625 -2.265625q0.578125 -1.140625 1.5 -1.6875q0.9375 -0.546875 1.984375 -0.546875zm-0.296875 0.59375q-0.46875 0 -0.96875 0.296875q-0.484375 0.28125 -0.78125 1.0q-0.296875 0.71875 -0.296875 1.84375q0 1.828125 0.71875 3.15625q0.71875 1.3125 1.90625 1.3125q0.890625 0 1.453125 -0.71875q0.578125 -0.734375 0.578125 -2.515625q0 -2.21875 -0.953125 -3.5q-0.640625 -0.875 -1.65625 -0.875zm8.015625 1.1875q0.90625 -0.90625 1.0781097 -1.046875q0.40625 -0.34375 0.875 -0.53125q0.484375 -0.203125 0.9375 -0.203125q0.78125 0 1.34375 0.46875q0.578125 0.453125 0.765625 1.3125q0.9375 -1.09375 1.578125 -1.4375q0.65625 -0.34375 1.34375 -0.34375q0.65625 0 1.171875 0.34375q0.515625 0.34375 0.8125 1.125q0.203125 0.515625 0.203125 1.65625l0 3.578125q0 0.78125 0.125 1.078125q0.078125 0.203125 0.328125 0.34375q0.25 0.140625 0.796875 0.140625l0 0.328125l-4.109375 0l0 -0.328125l0.171875 0q0.53125 0 0.84375 -0.203125q0.203125 -0.15625 0.296875 -0.46875q0.03125 -0.15625 0.03125 -0.890625l0 -3.578125q0 -1.03125 -0.234375 -1.453125q-0.359375 -0.578125 -1.140625 -0.578125q-0.484375 0 -0.984375 0.25q-0.484375 0.234375 -1.171875 0.890625l-0.015625 0.09375l0.015625 0.40625l0 3.96875q0 0.859375 0.09375 1.078125q0.09375 0.203125 0.359375 0.34375q0.265625 0.140625 0.90625 0.140625l0 0.328125l-4.21875 0l0 -0.328125q0.6875 0 0.953125 -0.15625q0.265625 -0.171875 0.359375 -0.5q0.046875 -0.15625 0.046875 -0.90625l0 -3.578125q0 -1.03125 -0.296875 -1.46875q-0.40625 -0.59375 -1.125 -0.59375q-0.5 0 -0.96875 0.265625q-0.76560974 0.40625 -1.1718597 0.90625l0 4.46875q0 0.828125 0.109375 1.078125q0.109375 0.234375 0.328125 0.359375q0.234375 0.125 0.92185974 0.125l0 0.328125l-4.1249847 0l0 -0.328125q0.5625 0 0.796875 -0.125q0.234375 -0.125 0.34375 -0.390625q0.125 -0.265625 0.125 -1.046875l0 -3.1875q0 -1.375 -0.09375 -1.765625q-0.0625 -0.3125 -0.203125 -0.421875q-0.125 -0.109375 -0.359375 -0.109375q-0.265625 0 -0.609375 0.140625l-0.140625 -0.328125l2.515625 -1.03125l0.390625 0l0 1.78125zm24.659851 -5.828125l0 4.28125l-0.328125 0q-0.171875 -1.234375 -0.59375 -1.953125q-0.421875 -0.734375 -1.203125 -1.15625q-0.78125 -0.4375 -1.625 -0.4375q-0.9375 0 -1.5625 0.578125q-0.625 0.578125 -0.625 1.3125q0 0.5625 0.390625 1.03125q0.578125 0.6875 2.6875 1.828125q1.734375 0.921875 2.359375 1.421875q0.640625 0.5 0.984375 1.171875q0.34375 0.671875 0.34375 1.40625q0 1.40625 -1.09375 2.421875q-1.078125 1.015625 -2.796875 1.015625q-0.53125 0 -1.015625 -0.078125q-0.28125 -0.046875 -1.171875 -0.328125q-0.890625 -0.296875 -1.125 -0.296875q-0.21875 0 -0.359375 0.140625q-0.125 0.140625 -0.1875 0.5625l-0.34375 0l0 -4.234375l0.34375 0q0.234375 1.328125 0.625 2.0q0.40625 0.65625 1.234375 1.09375q0.828125 0.4375 1.8125 0.4375q1.140625 0 1.796875 -0.59375q0.65625 -0.609375 0.65625 -1.4375q0 -0.453125 -0.25 -0.90625q-0.25 -0.46875 -0.78125 -0.875q-0.34375 -0.28125 -1.9375 -1.15625q-1.578125 -0.890625 -2.25 -1.421875q-0.671875 -0.53125 -1.015625 -1.171875q-0.34375 -0.640625 -0.34375 -1.390625q0 -1.34375 1.015625 -2.296875q1.015625 -0.96875 2.59375 -0.96875q0.984375 0 2.09375 0.484375q0.5 0.234375 0.71875 0.234375q0.234375 0 0.375 -0.140625q0.15625 -0.140625 0.25 -0.578125l0.328125 0zm5.656967 6.859375l0 3.59375q0 1.171875 0.25 1.453125q0.34375 0.390625 1.046875 0.390625l0.484375 0l0 0.34375l-5.296875 0l0 -0.34375l0.46875 0q0.78125 0 1.109375 -0.5q0.1875 -0.28125 0.1875 -1.34375l0 -7.984375q0 -1.15625 -0.25 -1.4375q-0.359375 -0.40625 -1.046875 -0.40625l-0.46875 0l0 -0.34375l4.53125 0q1.65625 0 2.609375 0.34375q0.953125 0.34375 1.609375 1.15625q0.65625 0.8125 0.65625 1.921875q0 1.515625 -1.0 2.46875q-1.0 0.9375 -2.8125 0.9375q-0.453125 0 -0.96875 -0.0625q-0.515625 -0.0625 -1.109375 -0.1875zm0 -0.515625q0.484375 0.078125 0.859375 0.125q0.375 0.046875 0.625 0.046875q0.953125 0 1.640625 -0.734375q0.6875 -0.734375 0.6875 -1.890625q0 -0.8125 -0.328125 -1.5q-0.328125 -0.6875 -0.9375 -1.015625q-0.59375 -0.34375 -1.359375 -0.34375q-0.453125 0 -1.1875 0.171875l0 5.140625zm6.969467 -6.28125l0 -0.375q1.375 0.6875 2.296875 1.609375q1.3125 1.328125 2.015625 3.125q0.71875 1.78125 0.71875 3.734375q0 2.8125 -1.390625 5.140625q-1.390625 2.328125 -3.640625 3.328125l0 -0.328125q1.125 -0.625 1.84375 -1.703125q0.71875 -1.0625 1.0625 -2.71875q0.359375 -1.65625 0.359375 -3.453125q0 -1.9375 -0.296875 -3.546875q-0.234375 -1.25 -0.578125 -2.0q-0.328125 -0.765625 -0.90625 -1.46875q-0.5625 -0.703125 -1.484375 -1.34375z" fill-rule="nonzero"/><path fill="#000000" fill-opacity="0.0" d="m551.48816 142.91862l36.944885 -0.56692505" fill-rule="evenodd"/><path stroke="#000000" stroke-width="3.0" stroke-linejoin="round" stroke-linecap="butt" d="m551.48816 142.91864l26.664856 -0.4091797" fill-rule="evenodd"/><path fill="#000000" stroke="#000000" stroke-width="3.0" stroke-linecap="butt" d="m578.153 142.50946l-3.3215942 3.4251099l9.216431 -3.5155792l-9.319946 -3.2311249z" fill-rule="evenodd"/><path fill="#000000" fill-opacity="0.0" d="m696.30707 26.590551l144.3465 0l0 48.72441l-144.3465 0z" fill-rule="evenodd"/><path fill="#000000" d="m746.88806 46.872753l-3.296875 0l-4.1875 -5.78125q-0.453125 0.03125 -0.75 0.03125q-0.125 0 -0.265625 0q-0.125 -0.015625 -0.28125 -0.03125l0 3.59375q0 1.171875 0.265625 1.453125q0.34375 0.390625 1.03125 0.390625l0.484375 0l0 0.34375l-5.296875 0l0 -0.34375l0.46875 0q0.78125 0 1.125 -0.5q0.1875 -0.28125 0.1875 -1.34375l0 -7.984375q0 -1.15625 -0.25 -1.4375q-0.359375 -0.40625 -1.0625 -0.40625l-0.46875 0l0 -0.34375l4.5 0q1.96875 0 2.90625 0.296875q0.9375 0.28125 1.578125 1.0625q0.65625 0.765625 0.65625 1.828125q0 1.140625 -0.75 1.984375q-0.734375 0.828125 -2.28125 1.171875l2.546875 3.546875q0.875 1.21875 1.5 1.625q0.625 0.390625 1.640625 0.5l0 0.34375zm-8.78125 -6.34375q0.1875 0 0.3125 0q0.125 0 0.203125 0q1.765625 0 2.65625 -0.765625q0.90625 -0.765625 0.90625 -1.953125q0 -1.15625 -0.734375 -1.875q-0.71875 -0.71875 -1.90625 -0.71875q-0.53125 0 -1.4375 0.171875l0 5.140625zm10.5998535 1.140625q0 1.859375 0.90625 2.921875q0.90625 1.046875 2.140625 1.046875q0.8125 0 1.421875 -0.4375q0.609375 -0.453125 1.015625 -1.546875l0.28125 0.171875q-0.1875 1.25 -1.109375 2.28125q-0.921875 1.015625 -2.296875 1.015625q-1.515625 0 -2.59375 -1.171875q-1.0625 -1.171875 -1.0625 -3.140625q0 -2.140625 1.09375 -3.328125q1.109375 -1.203125 2.765625 -1.203125q1.40625 0 2.296875 0.921875q0.90625 0.921875 0.90625 2.46875l-5.765625 0zm0 -0.53125l3.859375 0q-0.046875 -0.796875 -0.1875 -1.125q-0.234375 -0.515625 -0.6875 -0.796875q-0.4375 -0.296875 -0.9375 -0.296875q-0.75 0 -1.34375 0.59375q-0.59375 0.578125 -0.703125 1.625zm12.264893 -2.859375l0 2.84375l-0.296875 0q-0.34375 -1.34375 -0.890625 -1.8125q-0.53125 -0.484375 -1.375 -0.484375q-0.640625 0 -1.03125 0.34375q-0.390625 0.328125 -0.390625 0.734375q0 0.515625 0.296875 0.875q0.28125 0.375 1.140625 0.796875l1.328125 0.640625q1.859375 0.90625 1.859375 2.375q0 1.140625 -0.875 1.84375q-0.859375 0.6875 -1.921875 0.6875q-0.765625 0 -1.75 -0.265625q-0.296875 -0.09375 -0.484375 -0.09375q-0.21875 0 -0.328125 0.234375l-0.296875 0l0 -2.96875l0.296875 0q0.25 1.265625 0.96875 1.921875q0.71875 0.640625 1.609375 0.640625q0.640625 0 1.03125 -0.359375q0.390625 -0.375 0.390625 -0.90625q0 -0.625 -0.4375 -1.046875q-0.4375 -0.4375 -1.765625 -1.09375q-1.3125 -0.65625 -1.71875 -1.171875q-0.421875 -0.53125 -0.421875 -1.3125q0 -1.03125 0.703125 -1.71875q0.71875 -0.703125 1.828125 -0.703125q0.5 0 1.203125 0.21875q0.453125 0.125 0.609375 0.125q0.15625 0 0.234375 -0.0625q0.078125 -0.0625 0.1875 -0.28125l0.296875 0zm3.994629 -4.359375q0.390625 0 0.65625 0.265625q0.265625 0.265625 0.265625 0.65625q0 0.375 -0.265625 0.65625q-0.265625 0.265625 -0.65625 0.265625q-0.375 0 -0.65625 -0.265625q-0.265625 -0.28125 -0.265625 -0.65625q0 -0.390625 0.265625 -0.65625q0.265625 -0.265625 0.65625 -0.265625zm0.765625 4.359375l0 6.703125q0 0.78125 0.109375 1.046875q0.109375 0.265625 0.328125 0.390625q0.234375 0.125 0.828125 0.125l0 0.328125l-4.0625 0l0 -0.328125q0.609375 0 0.8125 -0.109375q0.21875 -0.125 0.34375 -0.390625q0.125 -0.28125 0.125 -1.0625l0 -3.203125q0 -1.359375 -0.078125 -1.765625q-0.078125 -0.296875 -0.21875 -0.40625q-0.125 -0.109375 -0.359375 -0.109375q-0.265625 0 -0.625 0.140625l-0.125 -0.328125l2.515625 -1.03125l0.40625 0zm7.6833496 0l0 2.84375l-0.296875 0q-0.34375 -1.34375 -0.890625 -1.8125q-0.53125 -0.484375 -1.375 -0.484375q-0.640625 0 -1.03125 0.34375q-0.390625 0.328125 -0.390625 0.734375q0 0.515625 0.296875 0.875q0.28125 0.375 1.140625 0.796875l1.328125 0.640625q1.859375 0.90625 1.859375 2.375q0 1.140625 -0.875 1.84375q-0.859375 0.6875 -1.921875 0.6875q-0.765625 0 -1.75 -0.265625q-0.296875 -0.09375 -0.484375 -0.09375q-0.21875 0 -0.328125 0.234375l-0.296875 0l0 -2.96875l0.296875 0q0.25 1.265625 0.96875 1.921875q0.71875 0.640625 1.609375 0.640625q0.640625 0 1.03125 -0.359375q0.390625 -0.375 0.390625 -0.90625q0 -0.625 -0.4375 -1.046875q-0.4375 -0.4375 -1.765625 -1.09375q-1.3125 -0.65625 -1.71875 -1.171875q-0.421875 -0.53125 -0.421875 -1.3125q0 -1.03125 0.703125 -1.71875q0.71875 -0.703125 1.828125 -0.703125q0.5 0 1.203125 0.21875q0.453125 0.125 0.609375 0.125q0.15625 0 0.234375 -0.0625q0.078125 -0.0625 0.1875 -0.28125l0.296875 0zm4.291504 -2.5l0 2.75l1.953125 0l0 0.640625l-1.953125 0l0 5.40625q0 0.8125 0.234375 1.09375q0.234375 0.28125 0.59375 0.28125q0.3125 0 0.59375 -0.1875q0.28125 -0.1875 0.4375 -0.546875l0.34375 0q-0.3125 0.890625 -0.90625 1.34375q-0.578125 0.453125 -1.1875 0.453125q-0.421875 0 -0.828125 -0.234375q-0.390625 -0.234375 -0.59375 -0.65625q-0.1875 -0.4375 -0.1875 -1.34375l0 -5.609375l-1.3125 0l0 -0.296875q0.5 -0.203125 1.015625 -0.6875q0.53125 -0.484375 0.9375 -1.125q0.203125 -0.359375 0.578125 -1.28125l0.28125 0zm4.8864136 -1.859375q0.390625 0 0.65625 0.265625q0.265625 0.265625 0.265625 0.65625q0 0.375 -0.265625 0.65625q-0.265625 0.265625 -0.65625 0.265625q-0.375 0 -0.65625 -0.265625q-0.265625 -0.28125 -0.265625 -0.65625q0 -0.390625 0.265625 -0.65625q0.265625 -0.265625 0.65625 -0.265625zm0.765625 4.359375l0 6.703125q0 0.78125 0.109375 1.046875q0.109375 0.265625 0.328125 0.390625q0.234375 0.125 0.828125 0.125l0 0.328125l-4.0625 0l0 -0.328125q0.609375 0 0.8125 -0.109375q0.21875 -0.125 0.34375 -0.390625q0.125 -0.28125 0.125 -1.0625l0 -3.203125q0 -1.359375 -0.078125 -1.765625q-0.078125 -0.296875 -0.21875 -0.40625q-0.125 -0.109375 -0.359375 -0.109375q-0.265625 0 -0.625 0.140625l-0.125 -0.328125l2.515625 -1.03125l0.40625 0zm1.8707886 0.25l3.921875 0l0 0.34375l-0.25 0q-0.359375 0 -0.546875 0.171875q-0.1875 0.171875 -0.1875 0.453125q0 0.328125 0.1875 0.765625l1.953125 4.609375l1.9375 -4.78125q0.21875 -0.515625 0.21875 -0.78125q0 -0.125 -0.078125 -0.203125q-0.09375 -0.140625 -0.25 -0.1875q-0.15625 -0.046875 -0.625 -0.046875l0 -0.34375l2.71875 0l0 0.34375q-0.46875 0.03125 -0.65625 0.1875q-0.3125 0.265625 -0.578125 0.90625l-2.953125 7.15625l-0.375 0l-2.984375 -7.03125q-0.203125 -0.5 -0.390625 -0.703125q-0.171875 -0.21875 -0.453125 -0.375q-0.15625 -0.078125 -0.609375 -0.140625l0 -0.34375zm11.15625 3.140625q0 1.859375 0.90625 2.921875q0.90625 1.046875 2.140625 1.046875q0.8125 0 1.421875 -0.4375q0.609375 -0.453125 1.015625 -1.546875l0.28125 0.171875q-0.1875 1.25 -1.109375 2.28125q-0.921875 1.015625 -2.296875 1.015625q-1.515625 0 -2.59375 -1.171875q-1.0625 -1.171875 -1.0625 -3.140625q0 -2.140625 1.09375 -3.328125q1.109375 -1.203125 2.765625 -1.203125q1.40625 0 2.296875 0.921875q0.90625 0.921875 0.90625 2.46875l-5.765625 0zm0 -0.53125l3.859375 0q-0.046875 -0.796875 -0.1875 -1.125q-0.234375 -0.515625 -0.6875 -0.796875q-0.4375 -0.296875 -0.9375 -0.296875q-0.75 0 -1.34375 0.59375q-0.59375 0.578125 -0.703125 1.625z" fill-rule="nonzero"/><path fill="#000000" d="m720.99725 57.20088l0 4.84375l2.25 0q0.78125 0 1.140625 -0.328125q0.359375 -0.34375 0.46875 -1.359375l0.34375 0l0 4.171879l-0.34375 0q0 -0.7187538 -0.1875 -1.0468788q-0.171875 -0.34375 -0.484375 -0.5q-0.3125 -0.171875 -0.9375 -0.171875l-2.25 0l0 3.8750038q0 0.9375 0.125 1.234375q0.09375 0.234375 0.375 0.390625q0.40625 0.21875 0.84375 0.21875l0.453125 0l0 0.34375l-5.3125 0l0 -0.34375l0.4375 0q0.765625 0 1.109375 -0.4375q0.21875 -0.296875 0.21875 -1.40625l0 -7.984379q0 -0.9375 -0.109375 -1.234375q-0.09375 -0.234375 -0.375 -0.390625q-0.390625 -0.21875 -0.84375 -0.21875l-0.4375 0l0 -0.34375l9.1875 0l0.125 2.71875l-0.3125 0q-0.234375 -0.859375 -0.5625 -1.265625q-0.3125 -0.40625 -0.78125 -0.578125q-0.453125 -0.1875 -1.40625 -0.1875l-2.734375 0zm11.235046 3.078125q1.890625 0 3.03125 1.4375q0.984375 1.234375 0.984375 2.8281288q0 1.125 -0.546875 2.28125q-0.53125 1.140625 -1.484375 1.71875q-0.9375 0.578125 -2.09375 0.578125q-1.890625 0 -3.0 -1.5q-0.9375 -1.265625 -0.9375 -2.84375q0 -1.1406288 0.5625 -2.2656288q0.578125 -1.140625 1.5 -1.6875q0.9375 -0.546875 1.984375 -0.546875zm-0.296875 0.59375q-0.46875 0 -0.96875 0.296875q-0.484375 0.28125 -0.78125 1.0q-0.296875 0.71875 -0.296875 1.8437538q0 1.828125 0.71875 3.15625q0.71875 1.3125 1.90625 1.3125q0.890625 0 1.453125 -0.71875q0.578125 -0.734375 0.578125 -2.515625q0 -2.2187538 -0.953125 -3.5000038q-0.640625 -0.875 -1.65625 -0.875zm7.984375 -0.59375l0 1.875q1.046875 -1.875 2.140625 -1.875q0.5 0 0.828125 0.3125q0.328125 0.296875 0.328125 0.703125q0 0.359375 -0.234375 0.609375q-0.234375 0.234375 -0.5625 0.234375q-0.328125 0 -0.71875 -0.3125q-0.390625 -0.3125 -0.578125 -0.3125q-0.171875 0 -0.359375 0.1875q-0.40625 0.359375 -0.84375 1.21875l0 4.000004q0 0.703125 0.171875 1.046875q0.109375 0.25 0.40625 0.421875q0.3125 0.15625 0.875 0.15625l0 0.328125l-4.28125 0l0 -0.328125q0.640625 0 0.953125 -0.203125q0.234375 -0.140625 0.3125 -0.46875q0.046875 -0.140625 0.046875 -0.875l0 -3.2343788q0 -1.453125 -0.0625 -1.734375q-0.046875 -0.28125 -0.21875 -0.40625q-0.15625 -0.125 -0.390625 -0.125q-0.28125 0 -0.640625 0.140625l-0.078125 -0.328125l2.515625 -1.03125l0.390625 0zm10.8533325 5.421879q-0.34375 1.65625 -1.328125 2.546875q-0.984375 0.875 -2.171875 0.875q-1.421875 0 -2.484375 -1.1875q-1.046875 -1.1875 -1.046875 -3.21875q0 -1.9687538 1.171875 -3.2031288q1.171875 -1.234375 2.8125 -1.234375q1.21875 0 2.015625 0.65625q0.796875 0.65625 0.796875 1.34375q0 0.359375 -0.234375 0.578125q-0.21875 0.203125 -0.609375 0.203125q-0.546875 0 -0.8125 -0.34375q-0.15625 -0.1875 -0.21875 -0.71875q-0.046875 -0.546875 -0.359375 -0.828125q-0.328125 -0.28125 -0.890625 -0.28125q-0.90625 0 -1.46875 0.671875q-0.734375 0.90625 -0.734375 2.359375q0 1.5000038 0.734375 2.6406288q0.734375 1.140625 1.984375 1.140625q0.890625 0 1.609375 -0.609375q0.5 -0.421875 0.96875 -1.515625l0.265625 0.125zm2.5930176 -2.0312538q0 1.8593788 0.90625 2.9218788q0.90625 1.046875 2.140625 1.046875q0.8125 0 1.421875 -0.4375q0.609375 -0.453125 1.015625 -1.546875l0.28125 0.171875q-0.1875 1.25 -1.109375 2.28125q-0.921875 1.015625 -2.296875 1.015625q-1.515625 0 -2.59375 -1.171875q-1.0625 -1.171875 -1.0625 -3.140625q0 -2.1406288 1.09375 -3.3281288q1.109375 -1.203125 2.765625 -1.203125q1.40625 0 2.296875 0.921875q0.90625 0.921875 0.90625 2.46875l-5.765625 0zm0 -0.53125l3.859375 0q-0.046875 -0.796875 -0.1875 -1.125q-0.234375 -0.515625 -0.6875 -0.796875q-0.4375 -0.296875 -0.9375 -0.296875q-0.75 0 -1.34375 0.59375q-0.59375 0.578125 -0.703125 1.625zm12.264954 -2.859375l0 2.84375l-0.296875 0q-0.34375 -1.34375 -0.890625 -1.8125q-0.53125 -0.484375 -1.375 -0.484375q-0.640625 0 -1.03125 0.34375q-0.390625 0.328125 -0.390625 0.734375q0 0.515625 0.296875 0.875q0.28125 0.375 1.140625 0.796875l1.328125 0.6406288q1.859375 0.90625 1.859375 2.375q0 1.140625 -0.875 1.84375q-0.859375 0.6875 -1.921875 0.6875q-0.765625 0 -1.75 -0.265625q-0.296875 -0.09375 -0.484375 -0.09375q-0.21875 0 -0.328125 0.234375l-0.296875 0l0 -2.96875l0.296875 0q0.25 1.265625 0.96875 1.921875q0.71875 0.640625 1.609375 0.640625q0.640625 0 1.03125 -0.359375q0.390625 -0.375 0.390625 -0.90625q0 -0.625 -0.4375 -1.046875q-0.4375 -0.4375 -1.765625 -1.09375q-1.3125 -0.65625 -1.71875 -1.171875q-0.421875 -0.5312538 -0.421875 -1.3125038q0 -1.03125 0.703125 -1.71875q0.71875 -0.703125 1.828125 -0.703125q0.5 0 1.203125 0.21875q0.453125 0.125 0.609375 0.125q0.15625 0 0.234375 -0.0625q0.078125 -0.0625 0.1875 -0.28125l0.296875 0zm2.291504 11.703129l0 -0.40625q0.9375 -0.3125 1.453125 -0.96875q0.515625 -0.640625 0.515625 -1.375q0 -0.171875 -0.078125 -0.28125q-0.0625 -0.09375 -0.125 -0.09375q-0.109375 0 -0.4375 0.1875q-0.171875 0.078125 -0.34375 0.078125q-0.453125 0 -0.71875 -0.25q-0.265625 -0.265625 -0.265625 -0.734375q0 -0.453125 0.34375 -0.765625q0.34375 -0.328125 0.828125 -0.328125q0.609375 0 1.078125 0.53125q0.46875 0.515625 0.46875 1.390625q0 0.9375 -0.65625 1.734375q-0.65625 0.8125 -2.0625 1.28125zm8.078125 -15.468754l3.359375 0l7.546875 9.265629l0 -7.125004q0 -1.125 -0.25 -1.421875q-0.34375 -0.375 -1.0625 -0.375l-0.4375 0l0 -0.34375l4.296875 0l0 0.34375l-0.4375 0q-0.78125 0 -1.109375 0.46875q-0.203125 0.296875 -0.203125 1.328125l0 10.421879l-0.328125 0l-8.140625 -9.953129l0 7.609379q0 1.140625 0.25 1.421875q0.34375 0.375 1.0625 0.375l0.4375 0l0 0.34375l-4.296875 0l0 -0.34375l0.421875 0q0.796875 0 1.125 -0.46875q0.203125 -0.296875 0.203125 -1.328125l0 -8.593754q-0.53125 -0.625 -0.8125 -0.828125q-0.28125 -0.203125 -0.8125 -0.375q-0.265625 -0.078125 -0.8125 -0.078125l0 -0.34375zm18.394836 3.765625q1.890625 0 3.03125 1.4375q0.984375 1.234375 0.984375 2.8281288q0 1.125 -0.546875 2.28125q-0.53125 1.140625 -1.484375 1.71875q-0.9375 0.578125 -2.09375 0.578125q-1.890625 0 -3.0 -1.5q-0.9375 -1.265625 -0.9375 -2.84375q0 -1.1406288 0.5625 -2.2656288q0.578125 -1.140625 1.5 -1.6875q0.9375 -0.546875 1.984375 -0.546875zm-0.296875 0.59375q-0.46875 0 -0.96875 0.296875q-0.484375 0.28125 -0.78125 1.0q-0.296875 0.71875 -0.296875 1.8437538q0 1.828125 0.71875 3.15625q0.71875 1.3125 1.90625 1.3125q0.890625 0 1.453125 -0.71875q0.578125 -0.734375 0.578125 -2.515625q0 -2.2187538 -0.953125 -3.5000038q-0.640625 -0.875 -1.65625 -0.875zm7.65625 -4.953125q0.390625 0 0.65625 0.265625q0.265625 0.265625 0.265625 0.65625q0 0.375 -0.265625 0.65625q-0.265625 0.265625 -0.65625 0.265625q-0.375 0 -0.65625 -0.265625q-0.265625 -0.28125 -0.265625 -0.65625q0 -0.390625 0.265625 -0.65625q0.265625 -0.265625 0.65625 -0.265625zm0.765625 4.359375l0 6.703129q0 0.78125 0.109375 1.046875q0.109375 0.265625 0.328125 0.390625q0.234375 0.125 0.828125 0.125l0 0.328125l-4.0625 0l0 -0.328125q0.609375 0 0.8125 -0.109375q0.21875 -0.125 0.34375 -0.390625q0.125 -0.28125 0.125 -1.0625l0 -3.2031288q0 -1.359375 -0.078125 -1.765625q-0.078125 -0.296875 -0.21875 -0.40625q-0.125 -0.109375 -0.359375 -0.109375q-0.265625 0 -0.625 0.140625l-0.125 -0.328125l2.515625 -1.03125l0.40625 0zm7.6832886 0l0 2.84375l-0.296875 0q-0.34375 -1.34375 -0.890625 -1.8125q-0.53125 -0.484375 -1.375 -0.484375q-0.640625 0 -1.03125 0.34375q-0.390625 0.328125 -0.390625 0.734375q0 0.515625 0.296875 0.875q0.28125 0.375 1.140625 0.796875l1.328125 0.6406288q1.859375 0.90625 1.859375 2.375q0 1.140625 -0.875 1.84375q-0.859375 0.6875 -1.921875 0.6875q-0.765625 0 -1.75 -0.265625q-0.296875 -0.09375 -0.484375 -0.09375q-0.21875 0 -0.328125 0.234375l-0.296875 0l0 -2.96875l0.296875 0q0.25 1.265625 0.96875 1.921875q0.71875 0.640625 1.609375 0.640625q0.640625 0 1.03125 -0.359375q0.390625 -0.375 0.390625 -0.90625q0 -0.625 -0.4375 -1.046875q-0.4375 -0.4375 -1.765625 -1.09375q-1.3125 -0.65625 -1.71875 -1.171875q-0.421875 -0.5312538 -0.421875 -1.3125038q0 -1.03125 0.703125 -1.71875q0.71875 -0.703125 1.828125 -0.703125q0.5 0 1.203125 0.21875q0.453125 0.125 0.609375 0.125q0.15625 0 0.234375 -0.0625q0.078125 -0.0625 0.1875 -0.28125l0.296875 0zm3.275879 3.390625q0 1.8593788 0.90625 2.9218788q0.90625 1.046875 2.140625 1.046875q0.8125 0 1.421875 -0.4375q0.609375 -0.453125 1.015625 -1.546875l0.28125 0.171875q-0.1875 1.25 -1.109375 2.28125q-0.921875 1.015625 -2.296875 1.015625q-1.515625 0 -2.59375 -1.171875q-1.0625 -1.171875 -1.0625 -3.140625q0 -2.1406288 1.09375 -3.3281288q1.109375 -1.203125 2.765625 -1.203125q1.40625 0 2.296875 0.921875q0.90625 0.921875 0.90625 2.46875l-5.765625 0zm0 -0.53125l3.859375 0q-0.046875 -0.796875 -0.1875 -1.125q-0.234375 -0.515625 -0.6875 -0.796875q-0.4375 -0.296875 -0.9375 -0.296875q-0.75 0 -1.34375 0.59375q-0.59375 0.578125 -0.703125 1.625z" fill-rule="nonzero"/><path fill="#57fff7" d="m343.6286 110.70079l133.92126 0l0 63.307083l-133.92126 0z" fill-rule="evenodd"/><path fill="#000000" d="m372.22885 141.80309l3.5 5.40625q0.9375 1.4375 1.546875 1.84375q0.609375 0.390625 1.609375 0.390625l-0.109375 0.390625l-6.015625 0l0.09375 -0.390625q0.71875 -0.0625 1.015625 -0.328125q0.296875 -0.28125 0.296875 -0.625q0 -0.3125 -0.109375 -0.609375q-0.078125 -0.203125 -0.59375 -1.015625l-2.875 -4.484375l-1.375 4.671875q-0.34375 1.125 -0.34375 1.515625q0 0.390625 0.28125 0.609375q0.296875 0.203125 1.4375 0.265625l-0.15625 0.390625l-5.59375 0l0.140625 -0.390625q0.8125 -0.015625 1.09375 -0.140625q0.421875 -0.1875 0.609375 -0.484375q0.28125 -0.421875 0.671875 -1.765625l2.484375 -8.53125q0.28125 -0.96875 0.28125 -1.5625q0 -0.421875 -0.265625 -0.640625q-0.265625 -0.21875 -1.03125 -0.21875l-0.203125 0l0.125 -0.390625l5.296875 0l-0.109375 0.390625q-0.65625 -0.015625 -0.96875 0.140625q-0.453125 0.21875 -0.671875 0.5625q-0.203125 0.34375 -0.609375 1.71875l-1.09375 3.625l5.03125 -3.78125q0.984375 -0.75 1.296875 -1.1875q0.1875 -0.265625 0.1875 -0.484375q0 -0.1875 -0.1875 -0.359375q-0.1875 -0.1875 -0.59375 -0.234375l0.109375 -0.390625l4.515625 0l-0.09375 0.390625q-0.734375 0.125 -1.25 0.328125q-0.5 0.203125 -1.03125 0.5625q-0.15625 0.09375 -2.03125 1.53125l-4.3125 3.28125z" fill-rule="nonzero"/><path fill="#000000" d="m382.82956 148.78746q0.28125 0 0.484375 0.203125q0.203125 0.203125 0.203125 0.5q0 0.28125 -0.203125 0.484375q-0.203125 0.203125 -0.484375 0.203125q-0.296875 0 -0.5 -0.203125q-0.203125 -0.203125 -0.203125 -0.484375q0 -0.296875 0.203125 -0.5q0.203125 -0.203125 0.5 -0.203125zm0.078125 2.765625l-1.375 4.859375q-0.140625 0.5 -0.140625 0.59375q0 0.109375 0.0625 0.1875q0.078125 0.0625 0.171875 0.0625q0.09375 0 0.25 -0.109375q0.390625 -0.3125 0.796875 -0.890625l0.234375 0.15625q-0.46875 0.734375 -1.109375 1.21875q-0.46875 0.375 -0.90625 0.375q-0.28125 0 -0.46875 -0.171875q-0.171875 -0.171875 -0.171875 -0.4375q0 -0.25 0.171875 -0.84375l0.90625 -3.109375q0.21875 -0.765625 0.21875 -0.96875q0 -0.140625 -0.109375 -0.234375q-0.109375 -0.109375 -0.296875 -0.109375q-0.140625 0 -0.625 0.078125l0 -0.265625l2.390625 -0.390625z" fill-rule="nonzero"/><path fill="#000000" d="m389.22516 140.50621l0.1875 -6.046875q0.09375 -1.59375 0.53125 -2.65625q0.28125 -0.6875 0.765625 -1.03125q0.484375 -0.34375 0.96875 -0.34375q0.515625 0 0.90625 0.359375q0.390625 0.34375 0.390625 0.765625q0 0.484375 -0.28125 0.78125q-0.265625 0.296875 -0.671875 0.296875q-0.359375 0 -0.796875 -0.375q-0.234375 -0.203125 -0.40625 -0.203125q-0.1875 0 -0.3125 0.15625q-0.109375 0.140625 -0.109375 0.5q0 0.4375 0.09375 1.515625q0.390625 4.28125 0.390625 6.90625q0 0.71875 -0.171875 6.140625q-0.078125 3.078125 -0.9375 4.15625q-0.5625 0.703125 -1.390625 0.703125q-0.546875 0 -0.890625 -0.359375q-0.34375 -0.359375 -0.34375 -0.90625q0 -0.46875 0.265625 -0.75q0.265625 -0.28125 0.671875 -0.28125q0.421875 0 0.71875 0.328125q0.296875 0.34375 0.515625 0.34375q0.171875 0 0.28125 -0.15625q0.125 -0.140625 0.125 -0.484375q0 -0.4375 -0.09375 -1.25q-0.1875 -1.484375 -0.28125 -3.515625q-0.125 -2.59375 -0.125 -4.59375z" fill-rule="nonzero"/><path fill="#000000" d="m397.91125 148.22496q0.875 0 1.484375 0.75q0.609375 0.734375 0.609375 2.34375q0 1.375 -0.453125 2.8125q-0.453125 1.421875 -1.265625 2.46875q-0.65625 0.828125 -1.375 1.1875q-0.40625 0.21875 -0.953125 0.21875q-0.90625 0 -1.515625 -0.734375q-0.609375 -0.75 -0.609375 -2.375q0 -1.578125 0.609375 -3.1875q0.71875 -1.875 1.828125 -2.84375q0.734375 -0.640625 1.640625 -0.640625zm0 0.359375q-0.40625 0 -0.828125 0.328125q-0.40625 0.3125 -0.84375 1.3125q-0.4375 1.0 -0.84375 2.5625q-0.515625 2.0625 -0.515625 3.515625q0 0.71875 0.3125 1.078125q0.3125 0.359375 0.75 0.359375q0.421875 0 0.71875 -0.28125q0.8125 -0.75 1.375 -2.5625q0.921875 -2.953125 0.921875 -4.8125q0 -0.765625 -0.3125 -1.125q-0.3125 -0.375 -0.734375 -0.375z" fill-rule="nonzero"/><path fill="#000000" d="m402.6455 145.91246q-0.078125 0.515625 -0.078125 0.859375q0 0.921875 0.65625 1.578125q0.65625 0.65625 1.59375 0.65625q0.75 0 1.4375 -0.3125q0.703125 -0.3125 2.0625 -1.359375l0.21875 0.296875q-2.46875 2.453125 -4.703125 2.453125q-1.53125 0 -2.296875 -0.953125q-0.765625 -0.96875 -0.765625 -2.125q0 -1.546875 0.953125 -3.171875q0.953125 -1.625 2.40625 -2.515625q1.453125 -0.90625 2.984375 -0.90625q1.09375 0 1.625 0.453125q0.53125 0.4375 0.53125 1.046875q0 0.875 -0.6875 1.65625q-0.90625 1.03125 -2.65625 1.671875q-1.171875 0.421875 -3.28125 0.671875zm0.0625 -0.515625q1.546875 -0.171875 2.515625 -0.609375q1.28125 -0.5625 1.921875 -1.359375q0.640625 -0.796875 0.640625 -1.515625q0 -0.4375 -0.28125 -0.703125q-0.265625 -0.28125 -0.78125 -0.28125q-1.0625 0 -2.265625 1.140625q-1.1875 1.125 -1.75 3.328125zm10.872681 8.828125l-0.359375 0.171875q-1.234375 -2.359375 -1.78125 -4.171875q-0.421875 -1.421875 -0.421875 -2.859375q0 -3.359375 1.5625 -6.015625q1.90625 -3.234375 6.171875 -6.328125l0.25 0.375q-1.921875 1.421875 -3.140625 3.1875q-1.53125 2.203125 -2.5 5.328125q-0.96875 3.125 -0.96875 5.6875q0 1.96875 1.1875 4.625zm13.1336975 -13.5625l-1.8125 6.203125q-0.40625 1.390625 -0.40625 1.75q0 0.1875 0.0625 0.28125q0.0625 0.078125 0.1875 0.078125q0.171875 0 0.375 -0.15625q0.21875 -0.15625 1.09375 -1.28125l0.3125 0.234375q-0.828125 1.296875 -1.6875 1.921875q-0.578125 0.390625 -1.109375 0.390625q-0.40625 0 -0.640625 -0.234375q-0.21875 -0.21875 -0.21875 -0.59375q0 -0.34375 0.125 -0.9375q0.171875 -0.765625 0.953125 -3.34375q-1.765625 2.90625 -2.96875 4.015625q-1.1875 1.09375 -2.203125 1.09375q-0.484375 0 -0.828125 -0.328125q-0.328125 -0.34375 -0.328125 -0.84375q0 -0.78125 0.46875 -2.40625l0.90625 -3.21875q0.328125 -1.15625 0.328125 -1.4375q0 -0.125 -0.09375 -0.203125q-0.078125 -0.09375 -0.1875 -0.09375q-0.21875 0 -0.4375 0.15625q-0.21875 0.15625 -0.984375 1.15625l-0.328125 -0.234375q0.78125 -1.203125 1.65625 -1.78125q0.671875 -0.4375 1.234375 -0.4375q0.375 0 0.625 0.25q0.25 0.234375 0.25 0.625q0 0.5625 -0.421875 2.0l-0.984375 3.375q-0.40625 1.375 -0.40625 1.734375q0 0.203125 0.125 0.328125q0.140625 0.109375 0.359375 0.109375q0.34375 0 0.890625 -0.34375q0.5625 -0.34375 1.484375 -1.515625q0.921875 -1.1875 1.515625 -2.21875q0.59375 -1.046875 1.28125 -3.3125l0.21875 -0.78125l1.59375 0zm3.7265625 -5.4375l0.34375 -0.203125q1.25 2.359375 1.78125 4.171875q0.421875 1.40625 0.421875 2.84375q0 3.375 -1.546875 6.015625q-1.921875 3.265625 -6.1875 6.34375l-0.25 -0.328125q1.9375 -1.4375 3.15625 -3.1875q1.515625 -2.21875 2.484375 -5.34375q0.96875 -3.125 0.96875 -5.6875q0 -1.953125 -1.171875 -4.625zm15.524292 -0.203125l-3.578125 12.296875q-0.28125 1.0 -0.28125 1.3125q0 0.09375 0.078125 0.1875q0.09375 0.09375 0.1875 0.09375q0.140625 0 0.328125 -0.125q0.34375 -0.25 1.1875 -1.25l0.34375 0.21875q-0.75 1.03125 -1.515625 1.6875q-0.765625 0.640625 -1.421875 0.640625q-0.359375 0 -0.59375 -0.25q-0.21875 -0.25 -0.21875 -0.703125q0 -0.59375 0.3125 -1.59375l0.40625 -1.296875q-1.515625 2.328125 -2.75 3.234375q-0.859375 0.609375 -1.640625 0.609375q-0.796875 0 -1.390625 -0.703125q-0.578125 -0.703125 -0.578125 -1.90625q0 -1.5625 0.984375 -3.3125q1.0 -1.765625 2.625 -2.875q1.28125 -0.875 2.34375 -0.875q0.5625 0 0.96875 0.234375q0.40625 0.21875 0.8125 0.75l1.015625 -3.625q0.109375 -0.375 0.1875 -0.609375q0.125 -0.421875 0.125 -0.6875q0 -0.21875 -0.15625 -0.359375q-0.21875 -0.1875 -0.5625 -0.1875q-0.234375 0 -0.796875 0.078125l0 -0.390625l3.578125 -0.59375zm-3.859375 7.390625q0 -0.65625 -0.390625 -1.0625q-0.375 -0.40625 -0.96875 -0.40625q-1.3125 0 -2.734375 2.171875q-1.421875 2.15625 -1.421875 4.140625q0 0.78125 0.34375 1.1875q0.34375 0.40625 0.828125 0.40625q1.078125 0 2.703125 -2.34375q1.640625 -2.34375 1.640625 -4.09375zm13.0390625 -1.75l-1.8125 6.203125q-0.40625 1.390625 -0.40625 1.75q0 0.1875 0.0625 0.28125q0.0625 0.078125 0.1875 0.078125q0.171875 0 0.375 -0.15625q0.21875 -0.15625 1.09375 -1.28125l0.3125 0.234375q-0.828125 1.296875 -1.6875 1.921875q-0.578125 0.390625 -1.109375 0.390625q-0.40625 0 -0.640625 -0.234375q-0.21875 -0.21875 -0.21875 -0.59375q0 -0.34375 0.125 -0.9375q0.171875 -0.765625 0.953125 -3.34375q-1.765625 2.90625 -2.96875 4.015625q-1.1875 1.09375 -2.203125 1.09375q-0.484375 0 -0.828125 -0.328125q-0.328125 -0.34375 -0.328125 -0.84375q0 -0.78125 0.46875 -2.40625l0.90625 -3.21875q0.328125 -1.15625 0.328125 -1.4375q0 -0.125 -0.09375 -0.203125q-0.078125 -0.09375 -0.1875 -0.09375q-0.21875 0 -0.4375 0.15625q-0.21875 0.15625 -0.984375 1.15625l-0.328125 -0.234375q0.78125 -1.203125 1.65625 -1.78125q0.671875 -0.4375 1.234375 -0.4375q0.375 0 0.625 0.25q0.25 0.234375 0.25 0.625q0 0.5625 -0.421875 2.0l-0.984375 3.375q-0.40625 1.375 -0.40625 1.734375q0 0.203125 0.125 0.328125q0.140625 0.109375 0.359375 0.109375q0.34375 0 0.890625 -0.34375q0.5625 -0.34375 1.484375 -1.515625q0.921875 -1.1875 1.515625 -2.21875q0.59375 -1.046875 1.28125 -3.3125l0.21875 -0.78125l1.59375 0z" fill-rule="nonzero"/><path fill="#000000" fill-opacity="0.0" d="m311.71915 70.362206l0 144.15747" fill-rule="evenodd"/><path stroke="#000000" stroke-width="3.0" stroke-linejoin="round" stroke-linecap="butt" d="m311.71915 70.362206l0 144.15747" fill-rule="evenodd"/><path fill="#000000" fill-opacity="0.0" d="m343.6286 142.35432l-31.527557 0" fill-rule="evenodd"/><path stroke="#000000" stroke-width="3.0" stroke-linejoin="round" stroke-linecap="butt" d="m333.34735 142.35432l-21.246307 0" fill-rule="evenodd"/><path fill="#000000" stroke="#000000" stroke-width="3.0" stroke-linecap="butt" d="m333.34735 142.35432l-3.3737488 3.373764l9.269287 -3.373764l-9.269287 -3.3737488z" fill-rule="evenodd"/><path fill="#000000" fill-opacity="0.0" d="m343.6286 70.18635l-31.527557 0" fill-rule="evenodd"/><path stroke="#000000" stroke-width="3.0" stroke-linejoin="round" stroke-linecap="butt" d="m333.34735 70.18635l-21.246307 0" fill-rule="evenodd"/><path fill="#000000" stroke="#000000" stroke-width="3.0" stroke-linecap="butt" d="m333.34735 70.18635l-3.3737488 3.3737564l9.269287 -3.3737564l-9.269287 -3.3737488z" fill-rule="evenodd"/><path fill="#000000" fill-opacity="0.0" d="m527.19684 70.18635l-49.637787 0" fill-rule="evenodd"/><path stroke="#000000" stroke-width="3.0" stroke-linejoin="round" stroke-linecap="butt" d="m527.19684 70.18635l-49.637787 0" fill-rule="evenodd"/><path fill="#57fff7" d="m503.17322 142.91862l0 0c0 -13.341797 10.815674 -24.15747 24.15747 -24.15747l0 0c6.4069824 0 12.551514 2.5451508 17.08191 7.0755615c4.5304565 4.530411 7.0755615 10.674957 7.0755615 17.08191l0 0c0 13.341812 -10.815613 24.157486 -24.15747 24.157486l0 0c-13.341797 0 -24.15747 -10.815674 -24.15747 -24.157486z" fill-rule="evenodd"/><path fill="#000000" d="m519.7488 133.45113l15.890625 0l0.421875 5.328125l-0.59375 0q-0.109375 -1.578125 -0.53125 -2.40625q-0.421875 -0.84375 -1.15625 -1.21875q-0.734375 -0.375 -2.328125 -0.375l-7.234375 0l6.453125 8.28125l-7.34375 8.671875l8.046875 0q2.1875 0 3.34375 -0.703125q1.15625 -0.703125 1.734375 -2.9375l0.59375 0.140625l-0.90625 6.40625l-16.390625 0l0 -0.5625l8.15625 -9.625l-8.15625 -10.4375l0 -0.5625z" fill-rule="nonzero"/><path fill="#000000" fill-opacity="0.0" d="m527.19684 214.52231l-49.637787 0" fill-rule="evenodd"/><path stroke="#000000" stroke-width="3.0" stroke-linejoin="round" stroke-linecap="butt" d="m527.19684 214.52231l-49.637787 0" fill-rule="evenodd"/><path fill="#000000" fill-opacity="0.0" d="m527.3307 118.761154l0 -47.779533" fill-rule="evenodd"/><path stroke="#000000" stroke-width="3.0" stroke-linejoin="round" stroke-linecap="butt" d="m527.3307 108.4799l0 -37.498276" fill-rule="evenodd"/><path fill="#000000" stroke="#000000" stroke-width="3.0" stroke-linecap="butt" d="m527.3307 108.4799l-3.3737183 -3.3737488l3.3737183 9.269302l3.3737793 -9.269302z" fill-rule="evenodd"/><path fill="#000000" fill-opacity="0.0" d="m527.3307 167.07611l0 47.685043" fill-rule="evenodd"/><path stroke="#000000" stroke-width="3.0" stroke-linejoin="round" stroke-linecap="butt" d="m527.3307 177.35736l0 37.403793" fill-rule="evenodd"/><path fill="#000000" stroke="#000000" stroke-width="3.0" stroke-linecap="butt" d="m527.3307 177.35738l3.3737793 3.3737488l-3.3737793 -9.269302l-3.3737183 9.269302z" fill-rule="evenodd"/><path fill="#57fff7" d="m343.6286 182.86876l133.92126 0l0 63.3071l-133.92126 0z" fill-rule="evenodd"/><path fill="#000000" d="m374.6068 214.19543l5.25 8.109375q1.40625 2.15625 2.328125 2.765625q0.921875 0.59375 2.421875 0.59375l-0.171875 0.578125l-9.03125 0l0.140625 -0.578125q1.078125 -0.109375 1.515625 -0.515625q0.453125 -0.40625 0.453125 -0.921875q0 -0.46875 -0.15625 -0.90625q-0.125 -0.3125 -0.90625 -1.53125l-4.296875 -6.734375l-2.078125 7.015625q-0.515625 1.6875 -0.515625 2.265625q0 0.59375 0.4375 0.90625q0.4375 0.3125 2.15625 0.421875l-0.25 0.578125l-8.375 0l0.203125 -0.578125q1.21875 -0.03125 1.640625 -0.21875q0.625 -0.28125 0.921875 -0.71875q0.40625 -0.640625 1.0 -2.65625l3.734375 -12.796875q0.421875 -1.46875 0.421875 -2.359375q0 -0.625 -0.40625 -0.953125q-0.390625 -0.328125 -1.546875 -0.328125l-0.3125 0l0.1875 -0.578125l7.953125 0l-0.15625 0.578125q-0.984375 -0.015625 -1.46875 0.21875q-0.671875 0.328125 -0.984375 0.84375q-0.3125 0.515625 -0.921875 2.578125l-1.640625 5.4375l7.53125 -5.671875q1.5 -1.125 1.96875 -1.78125q0.28125 -0.40625 0.28125 -0.734375q0 -0.28125 -0.296875 -0.546875q-0.28125 -0.265625 -0.875 -0.34375l0.15625 -0.578125l6.78125 0l-0.140625 0.578125q-1.109375 0.1875 -1.875 0.5q-0.75 0.296875 -1.546875 0.828125q-0.234375 0.15625 -3.046875 2.3125l-6.484375 4.921875z" fill-rule="nonzero"/><path fill="#000000" d="m397.26306 223.42981l-3.578125 12.296875q-0.28125 1.0 -0.28125 1.3125q0 0.09375 0.078125 0.1875q0.09375 0.09375 0.1875 0.09375q0.140625 0 0.328125 -0.125q0.34375 -0.25 1.1875 -1.25l0.34375 0.21875q-0.75 1.03125 -1.515625 1.6875q-0.765625 0.640625 -1.421875 0.640625q-0.359375 0 -0.59375 -0.25q-0.21875 -0.25 -0.21875 -0.703125q0 -0.59375 0.3125 -1.59375l0.40625 -1.296875q-1.515625 2.328125 -2.75 3.234375q-0.859375 0.609375 -1.640625 0.609375q-0.796875 0 -1.390625 -0.703125q-0.578125 -0.703125 -0.578125 -1.90625q0 -1.5625 0.984375 -3.3125q1.0 -1.765625 2.625 -2.875q1.28125 -0.875 2.34375 -0.875q0.5625 0 0.96875 0.234375q0.40625 0.21875 0.8125 0.75l1.015625 -3.625q0.109375 -0.375 0.1875 -0.609375q0.125 -0.421875 0.125 -0.6875q0 -0.21875 -0.15625 -0.359375q-0.21875 -0.1875 -0.5625 -0.1875q-0.234375 0 -0.796875 0.078125l0 -0.390625l3.578125 -0.59375zm-3.859375 7.390625q0 -0.65625 -0.390625 -1.0625q-0.375 -0.40625 -0.96875 -0.40625q-1.3125 0 -2.734375 2.171875q-1.421875 2.15625 -1.421875 4.140625q0 0.78125 0.34375 1.1875q0.34375 0.40625 0.828125 0.40625q1.078125 0 2.703125 -2.34375q1.640625 -2.34375 1.640625 -4.09375z" fill-rule="nonzero"/><path fill="#000000" d="m405.5404 220.35168q-0.109375 0.78125 -0.109375 1.296875q0 1.390625 0.984375 2.375q0.984375 0.96875 2.390625 0.96875q1.125 0 2.15625 -0.453125q1.046875 -0.46875 3.09375 -2.046875l0.328125 0.453125q-3.703125 3.671875 -7.0625 3.671875q-2.28125 0 -3.4375 -1.4375q-1.15625 -1.4375 -1.15625 -3.171875q0 -2.328125 1.4375 -4.765625q1.4375 -2.4375 3.609375 -3.78125q2.171875 -1.359375 4.46875 -1.359375q1.65625 0 2.453125 0.671875q0.796875 0.671875 0.796875 1.59375q0 1.296875 -1.03125 2.484375q-1.359375 1.546875 -4.0 2.5q-1.75 0.640625 -4.921875 1.0zm0.109375 -0.765625q2.3125 -0.265625 3.765625 -0.90625q1.921875 -0.859375 2.875 -2.046875q0.96875 -1.203125 0.96875 -2.28125q0 -0.65625 -0.421875 -1.0625q-0.40625 -0.40625 -1.171875 -0.40625q-1.59375 0 -3.390625 1.703125q-1.78125 1.6875 -2.625 5.0zm16.546875 -8.6875q1.171875 -0.515625 1.90625 -1.34375q0.5625 -0.625 0.5625 -1.1875q0 -0.296875 -0.09375 -0.53125q-0.0625 -0.125 -0.4375 -0.5q-0.375 -0.375 -0.421875 -0.515625q-0.109375 -0.25 -0.109375 -0.609375q0 -0.671875 0.453125 -1.15625q0.46875 -0.484375 1.09375 -0.484375q0.640625 0 1.125 0.515625q0.5 0.515625 0.5 1.296875q0 1.390625 -1.09375 2.8125q-1.09375 1.421875 -3.171875 2.203125l-0.3125 -0.5zm10.40625 21.9375l-0.53125 0.25q-1.859375 -3.546875 -2.671875 -6.265625q-0.625 -2.125 -0.625 -4.28125q0 -5.03125 2.328125 -9.015625q2.859375 -4.875 9.265625 -9.5l0.375 0.546875q-2.890625 2.140625 -4.71875 4.796875q-2.28125 3.3125 -3.734375 8.0q-1.453125 4.6875 -1.453125 8.53125q0 2.9375 1.765625 6.9375zm12.953125 -24.609375l-1.21875 4.25l2.453125 0l-0.265625 0.984375l-2.4375 0l-2.6875 9.21875q-0.4375 1.484375 -0.4375 1.921875q0 0.265625 0.125 0.40625q0.125 0.140625 0.296875 0.140625q0.390625 0 1.03125 -0.546875q0.375 -0.3125 1.671875 -1.921875l0.515625 0.390625q-1.4375 2.09375 -2.71875 2.953125q-0.875 0.59375 -1.765625 0.59375q-0.6875 0 -1.125 -0.421875q-0.4375 -0.4375 -0.4375 -1.109375q0 -0.84375 0.5 -2.578125l2.609375 -9.046875l-2.359375 0l0.15625 -0.609375q1.71875 -0.46875 2.859375 -1.390625q1.140625 -0.9375 2.546875 -3.234375l0.6875 0zm5.234375 -3.90625l0.53125 -0.296875q1.859375 3.53125 2.65625 6.25q0.640625 2.125 0.640625 4.28125q0 5.046875 -2.328125 9.015625q-2.875 4.890625 -9.265625 9.515625l-0.375 -0.484375q2.890625 -2.15625 4.71875 -4.796875q2.28125 -3.3125 3.734375 -8.0q1.453125 -4.703125 1.453125 -8.546875q0 -2.9375 -1.765625 -6.9375z" fill-rule="nonzero"/><path fill="#000000" fill-opacity="0.0" d="m343.98557 214.52231l-31.527557 0" fill-rule="evenodd"/><path stroke="#000000" stroke-width="3.0" stroke-linejoin="round" stroke-linecap="butt" d="m333.7043 214.52231l-21.246307 0" fill-rule="evenodd"/><path fill="#000000" stroke="#000000" stroke-width="3.0" stroke-linecap="butt" d="m333.7043 214.52231l-3.3737488 3.3737488l9.269287 -3.3737488l-9.269287 -3.3737488z" fill-rule="evenodd"/><path fill="#000000" fill-opacity="0.0" d="m503.17322 142.91862l-25.606293 0" fill-rule="evenodd"/><path stroke="#000000" stroke-width="3.0" stroke-linejoin="round" stroke-linecap="butt" d="m492.89197 142.91864l-15.325043 0" fill-rule="evenodd"/><path fill="#000000" stroke="#000000" stroke-width="3.0" stroke-linecap="butt" d="m492.89197 142.91864l-3.3737488 3.3737488l9.269318 -3.3737488l-9.269318 -3.3737488z" fill-rule="evenodd"/><path fill="#000000" fill-opacity="0.0" d="m385.89578 120.53505l19.590546 0l0 22.897629l-19.590546 0z" fill-rule="evenodd"/><path fill="#000000" d="m398.70828 129.01387l-0.5625 1.9375l1.125 0l-0.125 0.453125l-1.109375 0l-1.234375 4.234375q-0.203125 0.671875 -0.203125 0.875q0 0.125 0.046875 0.1875q0.0625 0.0625 0.140625 0.0625q0.1875 0 0.484375 -0.25q0.171875 -0.140625 0.765625 -0.875l0.234375 0.171875q-0.65625 0.953125 -1.25 1.359375q-0.40625 0.265625 -0.8125 0.265625q-0.3125 0 -0.515625 -0.1875q-0.203125 -0.203125 -0.203125 -0.515625q0 -0.390625 0.234375 -1.171875l1.203125 -4.15625l-1.09375 0l0.078125 -0.28125q0.78125 -0.203125 1.296875 -0.625q0.53125 -0.4375 1.1875 -1.484375l0.3125 0z" fill-rule="nonzero"/></g></svg>