<svg version="1.1" viewBox="0.0 0.0 441.244094488189 439.84514435695536" fill="none" stroke="none" stroke-linecap="square" stroke-miterlimit="10" xmlns:xlink="http://www.w3.org/1999/xlink" xmlns="http://www.w3.org/2000/svg"><clipPath id="p.0"><path d="m0 0l441.24408 0l0 439.84515l-441.24408 0l0 -439.84515z" clip-rule="nonzero"/></clipPath><g clip-path="url(#p.0)"><path fill="#000000" fill-opacity="0.0" d="m0 0l441.24408 0l0 439.84515l-441.24408 0z" fill-rule="evenodd"/><path fill="#000000" fill-opacity="0.0" d="m16.0 5.055118l0 421.88977" fill-rule="evenodd"/><path stroke="#000000" stroke-width="16.0" stroke-linejoin="round" stroke-linecap="butt" d="m16.0 5.055118l0 421.88977" fill-rule="evenodd"/><path fill="#000000" fill-opacity="0.0" d="m16.0 216.0l406.3937 0" fill-rule="evenodd"/><path stroke="#000000" stroke-width="8.0" stroke-linejoin="round" stroke-linecap="butt" d="m16.0 216.0l406.3937 0" fill-rule="evenodd"/><path fill="#000000" fill-opacity="0.0" d="m17.036745 425.68417c11.576117 -58.105408 45.267715 -319.79047 69.456696 -348.63254c24.188972 -28.84208 46.47769 156.00089 75.67717 175.58005c29.199463 19.579163 70.14697 -54.947067 99.51967 -58.10498c29.372711 -3.1579285 50.304474 35.210403 76.71655 39.15747c26.412079 3.9470673 68.12991 -12.895889 81.75589 -15.475067" fill-rule="evenodd"/><path stroke="#000000" stroke-width="8.0" stroke-linejoin="round" stroke-linecap="butt" d="m17.036745 425.68417c11.576117 -58.105408 45.267715 -319.79047 69.456696 -348.63254c24.188972 -28.84208 46.47769 156.00089 75.67717 175.58005c29.199463 19.579163 70.14697 -54.947067 99.51967 -58.10498c29.372711 -3.1579285 50.304474 35.210403 76.71655 39.15747c26.412079 3.9470673 68.12991 -12.895889 81.75589 -15.475067" fill-rule="evenodd"/></g></svg>